<?xml version="1.0" encoding="utf-8"?>
<!-- Generator: Adobe Illustrator 19.2.0, SVG Export Plug-In . SVG Version: 6.00 Build 0)  -->
<svg version="1.1" id="Layer_1" xmlns="http://www.w3.org/2000/svg" xmlns:xlink="http://www.w3.org/1999/xlink" x="0px" y="0px"
	 viewBox="0 0 415.9 96.3" style="enable-background:new 0 0 415.9 96.3;" xml:space="preserve">
<style type="text/css">
	.st0{fill:#FFFFFF;}
	.st1{fill-rule:evenodd;clip-rule:evenodd;fill:#FFFFFF;}
</style>
<g>
	<path class="st0" d="M263.1,19.8c16,0,28.9,12.7,28.9,28.3c0,15.6-13,28.3-28.9,28.3c-16,0-28.9-12.7-28.9-28.3
		c0-1.3,0.1-2.6,0.3-3.8l17.1-7.3c-2.8,2.9-4.5,6.8-4.5,11.1c0,8.8,7.2,16,16,16c8.8,0,16-7.2,16-16c0-8.8-7.2-16-16-16h-23.9
		C244.4,24.7,253.2,19.8,263.1,19.8L263.1,19.8z"/>
	<polygon class="st0" points="300.1,21.1 340.1,21.1 340.1,33.4 313,33.4 313,44.5 335.2,44.5 333.9,56.8 313,56.8 313,75.3 
		300.1,75.3 300.1,21.1 	"/>
	<polygon class="st0" points="387.5,21.1 387.5,33.4 372.1,33.4 372.1,75.3 359.2,75.3 359.2,33.4 343.8,33.4 343.8,21.1 
		387.5,21.1 	"/>
	<path class="st1" d="M206.5,19.8c-11.7,0-21.6,6.4-21.6,17.2c0,10.5,9.2,15.1,19.5,16.2l3.6,0.4c4.4,0.5,8.3,1.8,8.3,5.5
		c0,3-2.3,4.9-8,4.9c-6.1,0-11.7-2.5-16-6.2l-8.8,8.1c6.9,7.3,15.3,10.4,24.8,10.4c12.9,0,22.2-6.4,22.2-17.2
		c0-14.1-12.4-17.3-24.2-18.4c-3.5-0.3-7.2-1.3-7.2-4.4c0-3.7,4.3-4.3,7.4-4.3c4.3,0,10.5,2.5,13.6,5l8.8-8.1
		C223.1,23.5,214.9,19.8,206.5,19.8L206.5,19.8z"/>
	<polygon class="st1" points="180.6,21.1 180.6,33.4 165.2,33.4 165.2,75.3 152.3,75.3 152.3,33.4 136.9,33.4 136.9,21.1 
		180.6,21.1 	"/>
	<path class="st1" d="M49.4,19.8c16,0,28.9,12.7,28.9,28.3c0,15.6-13,28.3-28.9,28.3c-16,0-28.9-12.7-28.9-28.3
		c0-1.3,0.1-2.6,0.3-3.8l17.1-7.3c-2.8,2.9-4.5,6.8-4.5,11.1c0,8.8,7.2,16,16,16c8.8,0,16-7.2,16-16c0-8.8-7.2-16-16-16H25.6
		C30.8,24.7,39.5,19.8,49.4,19.8L49.4,19.8z"/>
	<path class="st1" d="M131.3,54.9c0,11.9-10.2,21.6-22.8,21.6c-12.6,0-22.8-9.7-22.8-21.6V21.1h12.9v33.2c0,5.4,4.4,9.9,9.9,9.9
		c5.4,0,9.9-4.4,9.9-9.9V21.1h12.9V54.9L131.3,54.9z"/>
</g>
</svg>
