<?xml version="1.0" encoding="utf-8"?>
<!-- Generator: Adobe Illustrator 19.2.0, SVG Export Plug-In . SVG Version: 6.00 Build 0)  -->
<svg version="1.1" id="Layer_1" xmlns="http://www.w3.org/2000/svg" xmlns:xlink="http://www.w3.org/1999/xlink" x="0px" y="0px"
	 viewBox="0 0 1000 1000" style="enable-background:new 0 0 1000 1000;" xml:space="preserve">
<style type="text/css">
	.st0{fill:#FFFFFF;}
	.st1{fill-rule:evenodd;clip-rule:evenodd;fill:#FFFFFF;}
</style>
<g>
	<path class="st0" d="M634.8,651.6c36.6,0,66.2,29,66.2,64.8c0,35.8-29.6,64.8-66.2,64.8s-66.2-29-66.2-64.8c0-3,0.2-5.9,0.6-8.7
		l39.2-16.7c-6.3,6.6-10.2,15.5-10.2,25.4c0,20.2,16.4,36.6,36.6,36.6c20.2,0,36.6-16.4,36.6-36.6c0-20.2-16.4-36.6-36.6-36.6h-54.6
		C592.1,662.8,612.1,651.6,634.8,651.6L634.8,651.6z"/>
	<polygon class="st0" points="719.3,654.4 810.9,654.4 810.9,682.6 748.9,682.6 748.9,708 799.6,708 796.8,736.1 748.9,736.1 
		748.9,778.4 719.3,778.4 719.3,654.4 	"/>
	<polygon class="st0" points="919.3,654.4 919.3,682.6 884.1,682.6 884.1,778.4 854.5,778.4 854.5,682.6 819.3,682.6 819.3,654.4 
		919.3,654.4 	"/>
	<path class="st1" d="M505.2,651.6c-26.8,0-49.3,14.8-49.3,39.4c0,24.1,21,34.6,44.6,37.1l8.3,0.9c10.2,1.1,18.9,4.2,18.9,12.6
		c0,6.9-5.3,11.3-18.3,11.3c-13.9,0-26.8-5.6-36.6-14.1l-20.1,18.5c15.9,16.7,35.1,23.7,56.7,23.7c29.6,0,50.7-14.6,50.7-39.4
		c0-32.3-28.4-39.6-55.3-42c-8-0.7-16.5-3-16.5-10.1c0-8.5,9.8-9.9,16.9-9.9c9.9,0,23.9,5.6,31.2,11.4l20.1-18.5
		C543.3,660.1,524.6,651.6,505.2,651.6L505.2,651.6z"/>
	<polygon class="st1" points="446.1,654.4 446.1,682.6 410.9,682.6 410.9,778.4 381.3,778.4 381.3,682.6 346.1,682.6 346.1,654.4 
		446.1,654.4 	"/>
	<path class="st1" d="M146.1,651.6c36.6,0,66.2,29,66.2,64.8c0,35.8-29.6,64.8-66.2,64.8c-36.6,0-66.2-29-66.2-64.8
		c0-3,0.2-5.9,0.6-8.7l39.2-16.7c-6.3,6.6-10.2,15.5-10.2,25.4c0,20.2,16.4,36.6,36.6,36.6c20.2,0,36.6-16.4,36.6-36.6
		c0-20.2-16.4-36.6-36.6-36.6H91.5C103.4,662.8,123.4,651.6,146.1,651.6L146.1,651.6z"/>
	<path class="st0" d="M48.6,883.8c0,15.4-8.7,19.6-15.4,19.6c-6.6,0-15.4-4.2-15.4-19.6c0-15.4,8.7-19.6,15.4-19.6
		C39.9,864.2,48.6,868.4,48.6,883.8L48.6,883.8z M978.4,870.8c-0.2,0.5-0.5,0.5-0.8,0.5c-0.5-0.2-0.8-0.3-1.2-0.5
		c-2.5-1.2-4.5-1.6-6.4-1.6c-4.2,0-5.9,2.4-5.9,5.2c0,3.8,3.1,5.2,7.5,7.2c4.7,2.2,9.6,4.3,9.6,11.1c0,7.2-6.2,10.7-12.3,10.7
		c-4.1,0-8.6-1.5-10.4-2.5c-0.2-0.2-1.3-0.6-1.3-1.2c0-0.2,0-0.5,0.1-0.5l1.5-3.1c0.1-0.2,0.2-0.4,0.5-0.4c0.1,0,0.2,0,0.2,0
		c0.5,0.1,0.9,0.4,2.1,0.9c1.9,0.9,5.2,1.8,7.6,1.8c4.1,0,6.3-2.2,6.3-5.6c0-3.7-2.9-4.9-7.4-7c-4.9-2.3-9.7-4.5-9.7-11
		c0-6.2,4.6-10.6,11.3-10.6c1.5,0,3.6,0.3,5.4,0.8c1.2,0.3,3.1,1,4,1.5c1.1,0.6,0.8,1.1,0.7,1.4L978.4,870.8L978.4,870.8z
		 M921.7,873.7c0-3.1-0.4-4-0.9-5.2l-0.2-0.5c-0.4-0.7-0.4-1-0.4-1.2c0-0.3,0.2-0.4,0.4-0.5l3.6-2c0.4-0.2,0.8-0.6,1.6,0.8
		c0.6,1.2,1.1,3,1.2,4.2c2.9-2.5,7.4-5.2,12.8-5.2c8.8,0,8.8,7.3,8.8,11.6v25.6c0,0.5-0.1,0.9-0.9,0.9h-4c-0.5,0-0.9-0.1-0.9-0.9
		v-25.8c0-2.3-0.2-6.2-5-6.2c-3.9,0-8,2.5-10.2,4.7v27.3c0,0.5-0.1,0.9-0.9,0.9h-4c-0.8,0-0.9-0.5-0.9-0.9V873.7L921.7,873.7z
		 M911.9,883.8c0,15.4-8.7,19.6-15.4,19.6c-6.6,0-15.4-4.2-15.4-19.6c0-15.4,8.7-19.6,15.4-19.6
		C903.1,864.2,911.9,868.4,911.9,883.8L911.9,883.8z M887.5,883.8L887.5,883.8c0,4,0.4,14.8,9,14.8c8.6,0,9-10.8,9-14.8
		c0-4-0.4-14.8-9-14.8C887.9,869,887.5,879.8,887.5,883.8L887.5,883.8z M871.3,901.4c0,0.8-0.5,0.9-0.9,0.9h-4
		c-0.5,0-0.9-0.1-0.9-0.9v-31.3h-6c-0.5,0-0.9-0.1-0.9-0.9v-2.9c0-0.8,0.5-0.9,0.9-0.9h10.9c0.9,0,1,0.8,1,1.2V901.4L871.3,901.4z
		 M868,856.5L868,856.5c-2.7,0-4.8-2.1-4.8-4.8c0-2.7,2.1-4.8,4.8-4.8c2.7,0,4.8,2.1,4.8,4.8C872.8,854.4,870.7,856.5,868,856.5
		L868,856.5z M840.7,892c0,3.3,0.2,6.2,4.5,6.2c2.7,0,5.4-1.2,6.3-1.6c0.5-0.2,0.8-0.5,1.1-0.5c0.1,0,0.1,0,0.2,0
		c0.5,0,0.5,0.3,0.5,0.5l0.9,3c0.2,0.7,0.4,1.2-3.2,2.5c-2.2,0.8-5,1.2-6.7,1.2c-2.7,0-5.5-0.8-7.3-2.7c-2-2.2-2.2-5.1-2.2-8.7
		v-21.9h-5.4c-0.5,0-0.9-0.1-0.9-0.9v-2.9c0-0.8,0.5-0.9,0.9-0.9h5.4v-10.6c0-0.4,0.1-0.7,0.8-0.9l4.1-1.2c1.1-0.3,0.9,0.4,0.9,0.8
		v11.9h11.4c0.5,0,1.1,0.1,0.8,1.1l-1,3c-0.2,0.7-0.8,0.7-1,0.7h-10.2V892L840.7,892z M815.5,898.9c-4.3,3.5-7.7,4.6-11.4,4.6
		c-9.7,0-10.6-6.3-10.6-11.6v-25.6c0-0.6,0.2-0.8,0.5-0.9l4.2-1c0.4-0.1,0.8-0.2,1.1,0.2c0.1,0.2,0.1,0.3,0.1,0.5V892
		c0,4.9,3,6.2,5.9,6.2c3.3,0,6.9-2.2,9.2-3.9v-28.1c0-0.6,0.2-0.8,0.5-0.9l4.2-1c0.6-0.2,0.8-0.1,0.9,0c0.1,0,0.2,0.1,0.2,0.2
		c0.1,0.2,0.1,0.3,0.1,0.5v29.2c0,0.9,0.2,2,0.6,3.1c0.4,1.1,0.9,1.9,1.2,2.4c0.2,0.5,0.5,0.8,0.5,1.1c0,0.3-0.3,0.5-0.6,0.6
		l-3.1,1.9c-0.4,0.2-1,0.6-1.9-1c-0.8-1.4-1.2-2.2-1.3-2.7L815.5,898.9L815.5,898.9z M787.6,901.1c0.2,0.6-0.1,0.8-0.3,0.9
		c-1.8,0.9-4.5,1.4-6.2,1.4c-2.1,0-4.5-0.6-5.9-1.9c-1-0.8-1.8-2.3-2.1-4.2c-0.3-1.8-0.3-6-0.3-6.5v-42.4c0-0.6,0.3-0.8,0.6-0.9l4-1
		c0.3-0.1,0.5-0.1,0.7-0.1c0.6,0,0.5,0.6,0.5,1v43.9c0,2.2,0,3.9,0.2,4.9c0.5,1.9,2.1,2.3,3.2,2.3c1.2,0,2.5-0.5,3-0.7
		c0.4-0.2,0.8-0.3,1.1-0.3c0.2,0,0.3,0.4,0.3,0.5L787.6,901.1L787.6,901.1z M763.3,883.8c0,15.4-8.7,19.6-15.4,19.6
		c-6.6,0-15.4-4.2-15.4-19.6c0-15.4,8.7-19.6,15.4-19.6C754.5,864.2,763.3,868.4,763.3,883.8L763.3,883.8z M738.9,883.8L738.9,883.8
		c0,4,0.4,14.8,9,14.8c8.6,0,9-10.8,9-14.8c0-4-0.4-14.8-9-14.8C739.3,869,738.9,879.8,738.9,883.8L738.9,883.8z M722.5,870.8
		c-0.2,0.5-0.5,0.5-0.8,0.5c-0.5-0.2-0.8-0.3-1.2-0.5c-2.5-1.2-4.5-1.6-6.4-1.6c-4.2,0-5.9,2.4-5.9,5.2c0,3.8,3.1,5.2,7.5,7.2
		c4.7,2.2,9.6,4.3,9.6,11.1c0,7.2-6.2,10.7-12.3,10.7c-4.1,0-8.6-1.5-10.4-2.5c-0.2-0.2-1.3-0.6-1.3-1.2c0-0.2,0-0.5,0.1-0.5
		l1.5-3.1c0.1-0.2,0.2-0.4,0.5-0.4c0.1,0,0.2,0,0.2,0c0.5,0.1,0.9,0.4,2.1,0.9c1.9,0.9,5.2,1.8,7.6,1.8c4.1,0,6.3-2.2,6.3-5.6
		c0-3.7-2.9-4.9-7.4-7c-4.9-2.3-9.7-4.5-9.7-11c0-6.2,4.6-10.6,11.3-10.6c1.5,0,3.6,0.3,5.4,0.8c1.2,0.3,3.1,1,4,1.5
		c1.1,0.6,0.8,1.1,0.7,1.4L722.5,870.8L722.5,870.8z M676,899c0.1,0.2,0.1,0.3,0.1,0.5c0,0.3-0.5,0.8-2.9,1.9c-2.2,1-5.2,2-8.7,2
		c-7.6,0-16.8-4.4-16.8-19.6c0-12.5,6.6-19.6,15.4-19.6c6.5,0,13.9,3.3,13.9,19.1v0.4c0,1.1-0.3,1.3-0.8,1.3H654v0.4
		c0,9,5.5,12.8,10.7,12.8c3.2,0,5.9-1.2,8.5-2.7c0.3-0.2,0.6-0.3,0.9-0.4c0.1,0,0.1,0,0.2,0c0.1,0,0.3,0.1,0.4,0.4L676,899L676,899z
		 M670.7,880.3L670.7,880.3c0-0.5,0-3.6-1.2-6.6c-1.5-3.7-4.3-4.7-6.9-4.7c-4.1,0-8.4,3-8.6,11.3H670.7L670.7,880.3z M632.8,869.5
		c1.9-2.2,4.3-5.2,8.3-5.2c1.2,0,2.2,0.3,2.9,0.6c0.9,0.3,0.7,0.8,0.5,1.1l-1.8,4.2c-0.1,0.2-0.2,0.5-0.5,0.5
		c-0.2,0-0.3-0.2-0.8-0.4c-0.5-0.2-0.9-0.3-1.4-0.3c-2.4,0-4.8,2.8-6.2,4.6l-1.2,1.5v25.4c0,0.5-0.1,0.9-0.9,0.9h-4
		c-0.8,0-0.9-0.5-0.9-0.9v-26.5c0-2.5-0.5-4.2-1.3-5.9l-0.5-1.1c-0.2-0.3-0.3-0.5-0.3-0.8c0-0.3,0.1-0.5,0.3-0.6l3.1-2
		c0.3-0.2,0.4-0.3,0.5-0.3c0.1,0,0.1,0,0.2,0c0.6,0.1,1.1,0.8,1.3,1.2c0.9,1.7,1.5,3.8,1.8,5.2L632.8,869.5L632.8,869.5z
		 M608.8,876.3c0-3.2-0.6-6.9-6.5-6.9c-2.6,0-6,0.8-8.6,2c-0.6,0.3-0.9,0.5-1.2,0.5c-0.4,0-0.5-0.2-0.6-0.4l-1.2-3.1
		c-0.4-1.1,0.7-1.5,1.6-1.9c3.4-1.4,6.9-2.2,10.6-2.2c7.7,0,11.7,3.7,11.7,10.6v17.5c0,1.9,0.4,4.2,0.9,5.6c0.2,0.6,0.8,1.6,1.1,2.2
		c0.2,0.3,0.3,0.5,0.3,0.6c0,0.2-0.2,0.4-0.5,0.5l-3.2,2c-0.5,0.3-1,0.5-2-1.2c-0.7-1.2-0.8-1.5-1.5-3.5l-0.1-0.2l-0.3,0.3
		c-1.8,1.8-4.9,4.9-10.4,4.9c-7.6,0-10.4-5.5-10.4-10.9c0-3.9,1.4-10.1,10.9-12.3c1.9-0.5,5.9-1.1,8.1-1.1h1.2V876.3L608.8,876.3z
		 M608.8,883.9L608.8,883.9h-1.2c-3.6,0-13.2,0.6-13.2,8.4c0,4.6,3.1,6.3,5.6,6.3c3.5,0,7.2-3.2,8.3-4.3l0.5-0.5V883.9L608.8,883.9z
		 M562.8,865.3c0.2,0,0.8,0,0.9,0.8l6.3,25.8c0.2,0.9,0.5,1.9,0.5,3.2h0.2c0.1-1.7,0.3-2.6,0.5-3.2l6.6-26.3c0.2-1,0.8-0.8,1-0.7
		l3.9,1.1c0.3,0.1,0.6,0.2,0.4,1l-10.1,35.2c-0.2,0.7-0.4,0.8-0.9,0.8h-3.1c-0.8,0-0.8-0.5-0.9-0.8l-6.1-23.4
		c-0.3-1.2-0.8-3.1-0.8-5.9h-0.2c-0.4,3.2-0.7,4.2-1.2,5.8l-7.3,23.5c-0.1,0.2-0.2,0.8-0.8,0.8h-3.1c-0.3,0-0.7-0.2-0.9-0.8l-8.7-35
		c-0.1-0.4-0.2-0.5-0.2-0.7c0-0.4,0.2-0.5,0.5-0.5l3.9-1.1c0.2-0.1,0.5-0.2,0.8,0.1c0.1,0.1,0.2,0.3,0.2,0.6l5.6,25.3
		c0.3,1.2,0.5,2.5,0.8,4.2h0.2c0.2-1.9,0.7-3.6,0.8-4.2l7.3-24.8c0.2-0.7,0.6-0.8,0.9-0.8H562.8L562.8,865.3z M520.5,892
		c0,3.3,0.2,6.2,4.5,6.2c2.7,0,5.4-1.2,6.3-1.6c0.5-0.2,0.8-0.5,1.1-0.5c0.1,0,0.1,0,0.2,0c0.5,0,0.5,0.3,0.5,0.5l0.9,3
		c0.2,0.7,0.4,1.2-3.2,2.5c-2.2,0.8-5,1.2-6.7,1.2c-2.7,0-5.5-0.8-7.3-2.7c-2-2.2-2.2-5.1-2.2-8.7v-21.9h-5.4
		c-0.5,0-0.9-0.1-0.9-0.9v-2.9c0-0.8,0.5-0.9,0.9-0.9h5.4v-10.6c0-0.4,0.1-0.7,0.8-0.9l4.1-1.2c1.1-0.3,0.9,0.4,0.9,0.8v11.9H532
		c0.5,0,1.1,0.1,0.8,1.1l-1,3c-0.2,0.7-0.8,0.7-1,0.7h-10.2V892L520.5,892z M492.5,901.4c0,0.8-0.5,0.9-0.9,0.9h-4
		c-0.8,0-0.9-0.5-0.9-0.9v-31.3h-5c-0.5,0-0.9-0.1-0.9-0.9v-2.9c0-0.8,0.5-0.9,0.9-0.9h5v-6c0-3,0.2-6.2,2-8.9
		c1.3-1.9,3.8-3.9,8.7-3.9c3.2,0,5.5,0.9,7.1,1.5c1.6,0.7,1.4,1.2,1.2,1.6l-1.3,3.2c-0.1,0.3-0.4,0.5-0.5,0.5c-0.2,0-0.5,0-1.9-0.5
		c-1.1-0.5-2.9-1.1-4.9-1.1c-1.9,0-3.2,0.8-3.8,1.6c-0.8,1.2-0.8,3.2-0.8,4.9v7.2h11.1c0.5,0,1.1,0.1,0.8,1.1l-1,3
		c-0.2,0.7-0.8,0.7-1,0.7h-9.9V901.4L492.5,901.4z M475.4,883.8c0,15.4-8.7,19.6-15.4,19.6c-6.6,0-15.4-4.2-15.4-19.6
		c0-15.4,8.7-19.6,15.4-19.6C466.6,864.2,475.4,868.4,475.4,883.8L475.4,883.8z M451,883.8L451,883.8c0,4,0.4,14.8,9,14.8
		c8.6,0,9-10.8,9-14.8c0-4-0.4-14.8-9-14.8C451.4,869,451,879.8,451,883.8L451,883.8z M434.6,870.8c-0.2,0.5-0.5,0.5-0.8,0.5
		c-0.5-0.2-0.8-0.3-1.2-0.5c-2.5-1.2-4.5-1.6-6.4-1.6c-4.2,0-5.9,2.4-5.9,5.2c0,3.8,3.1,5.2,7.5,7.2c4.7,2.2,9.6,4.3,9.6,11.1
		c0,7.2-6.2,10.7-12.4,10.7c-4.1,0-8.6-1.5-10.4-2.5c-0.2-0.2-1.3-0.6-1.3-1.2c0-0.2,0-0.5,0.1-0.5l1.5-3.1c0.1-0.2,0.2-0.4,0.5-0.4
		c0.1,0,0.2,0,0.2,0c0.5,0.1,0.9,0.4,2.1,0.9c1.9,0.9,5.2,1.8,7.6,1.8c4.1,0,6.3-2.2,6.3-5.6c0-3.7-2.9-4.9-7.4-7
		c-4.9-2.3-9.7-4.5-9.7-11c0-6.2,4.6-10.6,11.3-10.6c1.5,0,3.6,0.3,5.4,0.8c1.2,0.3,3.1,1,4,1.5c1.1,0.6,0.8,1.1,0.7,1.4
		L434.6,870.8L434.6,870.8z M385.9,887.4l0.5,17.5c0.3,9.4-5.9,13.6-13.6,13.6c-4.1,0-8.7-1.1-11.3-2.5c-0.6-0.4-1.7-0.9-1.7-1.5
		c0-0.3,0.2-0.5,0.2-0.7l1.3-2.9c0.1-0.2,0.2-0.4,0.5-0.5c0.5,0,0.6,0.2,1.6,0.7c1.5,0.8,5.4,2.3,9.3,2.3c6.8,0,7.9-4.3,7.7-8.3
		l-0.2-8c-2.2,1.9-5.9,4.2-10.4,4.2c-6.3,0-12-5-12-17.1c0-15.6,7.8-20.1,14.4-20.1c3.3,0,6.9,1.4,8.9,2.9l0.5,0.4
		c0.5-1.5,1.4-3.9,2.8-3.1l3.5,2.2c0.2,0.2,0.3,0.3,0.3,0.5v0.1c0,0.2-0.2,0.5-0.4,0.8c-1.1,1.8-2,4.3-2,6.5V887.4L385.9,887.4z
		 M380,871.5L380,871.5c-1.9-1.2-5.3-2.1-7.1-2.1c-8.3,0-8.6,10-8.6,14c0,6,0.7,12.8,6.7,12.8c3,0,6.6-2.2,9-3.9V871.5L380,871.5z
		 M321.2,873.7c0-3.1-0.4-4-0.9-5.2l-0.2-0.5c-0.4-0.7-0.4-1-0.4-1.2c0-0.3,0.2-0.4,0.4-0.5l3.6-2c0.4-0.2,0.8-0.6,1.6,0.8
		c0.6,1.2,1.1,3,1.2,4.2c2.9-2.5,7.4-5.2,12.8-5.2c8.8,0,8.8,7.3,8.8,11.6v25.6c0,0.5-0.1,0.9-0.9,0.9h-4c-0.5,0-0.9-0.1-0.9-0.9
		v-25.8c0-2.3-0.2-6.2-5-6.2c-3.9,0-8,2.5-10.2,4.7v27.3c0,0.5-0.1,0.9-0.9,0.9h-4c-0.9,0-0.9-0.5-0.9-0.9V873.7L321.2,873.7z
		 M308.9,901.4c0,0.8-0.5,0.9-0.9,0.9h-4c-0.5,0-0.9-0.1-0.9-0.9v-31.3h-6c-0.5,0-0.9-0.1-0.9-0.9v-2.9c0-0.8,0.5-0.9,0.9-0.9h10.9
		c0.9,0,1,0.8,1,1.2V901.4L308.9,901.4z M305.6,856.5L305.6,856.5c-2.7,0-4.8-2.1-4.8-4.8c0-2.7,2.1-4.8,4.8-4.8
		c2.7,0,4.8,2.1,4.8,4.8C310.4,854.4,308.3,856.5,305.6,856.5L305.6,856.5z M288,890.1c0,3-0.1,5.2,0.8,7.6c0.6,1.8,1.5,2.5,1.5,2.9
		c0,0.3-0.5,0.5-0.7,0.7l-3,1.9c-1.5,0.9-2.9-2.5-3.4-4.3l-0.6,0.5c-2.2,1.6-5.8,4.1-10.1,4.1c-4.1,0-12.7-2.1-12.7-19.1
		c0-18.1,9.3-20.1,13.7-20.1c0.9,0,4.9,0.1,8.6,2.6v-18.4c0-0.6,0.3-0.8,0.6-0.9l4-1c0.3-0.1,0.5-0.1,0.7-0.1c0.6,0,0.5,0.6,0.5,1
		V890.1L288,890.1z M282.2,871.9L282.2,871.9c-2.3-1.3-5.3-2.5-7.7-2.5c-7.8,0-8.3,7.6-8.3,14.4c0,5.7,0,14.4,6.8,14.4
		c3.1,0,6.6-2.6,7.9-3.5l1.4-1V871.9L282.2,871.9z M222.8,873.7c0-3.1-0.4-4-0.9-5.2l-0.2-0.5c-0.4-0.7-0.4-1-0.4-1.2
		c0-0.3,0.2-0.4,0.4-0.5l3.6-2c0.4-0.2,0.8-0.6,1.6,0.8c0.6,1.2,1.1,3,1.2,4.2c2.9-2.5,7.4-5.2,12.8-5.2c8.8,0,8.8,7.3,8.8,11.6
		v25.6c0,0.5-0.1,0.9-0.9,0.9h-4c-0.5,0-0.9-0.1-0.9-0.9v-25.8c0-2.3-0.2-6.2-5-6.2c-3.9,0-8,2.5-10.2,4.7v27.3
		c0,0.5-0.1,0.9-0.9,0.9h-4c-0.9,0-0.9-0.5-0.9-0.9V873.7L222.8,873.7z M205,876.3c0-3.2-0.6-6.9-6.5-6.9c-2.6,0-6,0.8-8.6,2
		c-0.6,0.3-0.9,0.5-1.2,0.5c-0.4,0-0.5-0.2-0.6-0.4l-1.2-3.1c-0.4-1.1,0.7-1.5,1.6-1.9c3.4-1.4,6.9-2.2,10.6-2.2
		c7.7,0,11.7,3.7,11.7,10.6v17.5c0,1.9,0.4,4.2,0.9,5.6c0.2,0.6,0.8,1.6,1.1,2.2c0.2,0.3,0.3,0.5,0.3,0.6c0,0.2-0.2,0.4-0.5,0.5
		l-3.2,2c-0.5,0.3-1,0.5-2-1.2c-0.7-1.2-0.8-1.5-1.5-3.5l-0.1-0.2l-0.3,0.3c-1.8,1.8-4.9,4.9-10.4,4.9c-7.6,0-10.4-5.5-10.4-10.9
		c0-3.9,1.4-10.1,10.9-12.3c1.9-0.5,5.9-1.1,8.1-1.1h1.2V876.3L205,876.3z M205,883.9L205,883.9h-1.2c-3.6,0-13.2,0.6-13.2,8.4
		c0,4.6,3.1,6.3,5.6,6.3c3.5,0,7.2-3.2,8.3-4.3l0.5-0.5V883.9L205,883.9z M166.1,892c0,3.3,0.2,6.2,4.5,6.2c2.7,0,5.4-1.2,6.3-1.6
		c0.5-0.2,0.8-0.5,1.1-0.5c0.1,0,0.1,0,0.2,0c0.5,0,0.5,0.3,0.5,0.5l0.9,3c0.2,0.7,0.4,1.2-3.2,2.5c-2.2,0.8-5,1.2-6.7,1.2
		c-2.7,0-5.5-0.8-7.3-2.7c-2-2.2-2.2-5.1-2.2-8.7v-21.9h-5.4c-0.5,0-0.9-0.1-0.9-0.9v-2.9c0-0.8,0.5-0.9,0.9-0.9h5.4v-10.6
		c0-0.4,0.1-0.7,0.8-0.9l4.1-1.2c1.1-0.3,0.9,0.4,0.9,0.8v11.9h11.4c0.5,0,1.1,0.1,0.8,1.1l-1,3c-0.2,0.7-0.8,0.7-1,0.7h-10.2V892
		L166.1,892z M145.6,870.8c-0.2,0.5-0.5,0.5-0.8,0.5c-0.5-0.2-0.8-0.3-1.2-0.5c-2.5-1.2-4.5-1.6-6.4-1.6c-4.2,0-5.9,2.4-5.9,5.2
		c0,3.8,3.1,5.2,7.5,7.2c4.7,2.2,9.6,4.3,9.6,11.1c0,7.2-6.2,10.7-12.4,10.7c-4.1,0-8.6-1.5-10.4-2.5c-0.2-0.2-1.3-0.6-1.3-1.2
		c0-0.2,0-0.5,0.1-0.5l1.5-3.1c0.1-0.2,0.2-0.4,0.5-0.4c0.1,0,0.2,0,0.2,0c0.5,0.1,0.9,0.4,2.1,0.9c1.9,0.9,5.2,1.8,7.6,1.8
		c4.1,0,6.3-2.2,6.3-5.6c0-3.7-2.9-4.9-7.4-7c-4.9-2.3-9.7-4.5-9.7-11c0-6.2,4.6-10.6,11.3-10.6c1.5,0,3.6,0.3,5.4,0.8
		c1.2,0.3,3.1,1,4,1.5c1.1,0.6,0.8,1.1,0.7,1.4L145.6,870.8L145.6,870.8z M105.4,892c0,3.3,0.2,6.2,4.5,6.2c2.7,0,5.4-1.2,6.3-1.6
		c0.5-0.2,0.8-0.5,1.1-0.5c0.1,0,0.1,0,0.2,0c0.5,0,0.5,0.3,0.5,0.5l0.9,3c0.2,0.7,0.4,1.2-3.2,2.5c-2.2,0.8-5,1.2-6.7,1.2
		c-2.7,0-5.5-0.8-7.3-2.7c-2-2.2-2.2-5.1-2.2-8.7v-21.9h-5.4c-0.5,0-0.9-0.1-0.9-0.9v-2.9c0-0.8,0.5-0.9,0.9-0.9h5.4v-10.6
		c0-0.4,0.1-0.7,0.8-0.9l4.1-1.2c1.1-0.3,0.9,0.4,0.9,0.8v11.9h11.4c0.5,0,1.1,0.1,0.8,1.1l-1,3c-0.2,0.7-0.8,0.7-1,0.7h-10.2V892
		L105.4,892z M80.3,898.9c-4.3,3.5-7.7,4.6-11.4,4.6c-9.6,0-10.6-6.3-10.6-11.6v-25.6c0-0.6,0.2-0.8,0.5-0.9l4.2-1
		c0.4-0.1,0.9-0.2,1.1,0.2c0.1,0.2,0.1,0.3,0.1,0.5V892c0,4.9,3,6.2,5.9,6.2c3.3,0,6.9-2.2,9.2-3.9v-28.1c0-0.6,0.2-0.8,0.5-0.9
		l4.2-1c0.6-0.2,0.8-0.1,0.9,0c0.1,0,0.2,0.1,0.2,0.2c0.1,0.2,0.1,0.3,0.1,0.5v29.2c0,0.9,0.2,2,0.6,3.1c0.4,1.1,0.9,1.9,1.2,2.4
		c0.2,0.5,0.5,0.8,0.5,1.1c0,0.3-0.3,0.5-0.6,0.6l-3.1,1.9c-0.4,0.2-1,0.6-1.9-1c-0.8-1.4-1.2-2.2-1.3-2.7L80.3,898.9L80.3,898.9z
		 M24.2,883.8L24.2,883.8c0,4,0.4,14.8,9,14.8c8.6,0,9-10.8,9-14.8c0-4-0.4-14.8-9-14.8C24.6,869,24.2,879.8,24.2,883.8L24.2,883.8z
		"/>
	<path class="st1" d="M499.6,82.6C624,82.6,724.9,183.5,724.9,308c0,124.5-100.9,225.4-225.4,225.4
		c-124.5,0-225.4-100.9-225.4-225.4c0-6.2,0.3-12.3,0.8-18.4l162.2-57.9C415.1,249.8,401,277.2,401,308c0,54.4,44.1,98.6,98.6,98.6
		c54.4,0,98.6-44.1,98.6-98.6c0-54.5-44.1-98.6-98.6-98.6H296.9C333.5,134.3,410.5,82.6,499.6,82.6L499.6,82.6z"/>
	<path class="st1" d="M333.4,731.9c0,27.2-23.3,49.3-52.1,49.3c-28.8,0-52.1-22.1-52.1-49.3v-77.5h29.6v76.1
		c0,12.4,10.1,22.5,22.5,22.5c12.4,0,22.5-10.1,22.5-22.5v-76.1h29.6V731.9L333.4,731.9z"/>
</g>
</svg>
