<?xml version="1.0" encoding="utf-8"?>
<!-- Generator: Adobe Illustrator 19.2.1, SVG Export Plug-In . SVG Version: 6.00 Build 0)  -->
<svg version="1.1" id="Layer_1" xmlns="http://www.w3.org/2000/svg" xmlns:xlink="http://www.w3.org/1999/xlink" x="0px" y="0px"
	 viewBox="0 0 234.1 242.8" style="enable-background:new 0 0 234.1 242.8;" xml:space="preserve">
<style type="text/css">
	.st0{fill:url(#SVGID_2_);}
	.st1{clip-path:url(#SVGID_4_);}
	.st2{opacity:0.2;fill:#FFFFFF;enable-background:new    ;}
	.st3{opacity:0.2195;fill:url(#SVGID_5_);enable-background:new    ;}
	.st4{opacity:0.239;fill:url(#SVGID_6_);enable-background:new    ;}
	.st5{opacity:0.2585;fill:url(#SVGID_7_);enable-background:new    ;}
	.st6{opacity:0.278;fill:url(#SVGID_8_);enable-background:new    ;}
	.st7{opacity:0.2976;fill:url(#SVGID_9_);enable-background:new    ;}
	.st8{opacity:0.3171;fill:url(#SVGID_10_);enable-background:new    ;}
	.st9{opacity:0.3366;fill:url(#SVGID_11_);enable-background:new    ;}
	.st10{opacity:0.3561;fill:url(#SVGID_12_);enable-background:new    ;}
	.st11{opacity:0.3756;fill:url(#SVGID_13_);enable-background:new    ;}
	.st12{opacity:0.3951;fill:url(#SVGID_14_);enable-background:new    ;}
	.st13{opacity:0.4146;fill:url(#SVGID_15_);enable-background:new    ;}
	.st14{opacity:0.4341;fill:url(#SVGID_16_);enable-background:new    ;}
	.st15{opacity:0.4537;fill:url(#SVGID_17_);enable-background:new    ;}
	.st16{opacity:0.4732;fill:url(#SVGID_18_);enable-background:new    ;}
	.st17{opacity:0.4927;fill:url(#SVGID_19_);enable-background:new    ;}
	.st18{opacity:0.5122;fill:url(#SVGID_20_);enable-background:new    ;}
	.st19{opacity:0.5317;fill:url(#SVGID_21_);enable-background:new    ;}
	.st20{opacity:0.5512;fill:url(#SVGID_22_);enable-background:new    ;}
	.st21{opacity:0.5707;fill:url(#SVGID_23_);enable-background:new    ;}
	.st22{opacity:0.5902;fill:url(#SVGID_24_);enable-background:new    ;}
	.st23{opacity:0.6098;fill:url(#SVGID_25_);enable-background:new    ;}
	.st24{opacity:0.6293;fill:url(#SVGID_26_);enable-background:new    ;}
	.st25{opacity:0.6488;fill:url(#SVGID_27_);enable-background:new    ;}
	.st26{opacity:0.6683;fill:url(#SVGID_28_);enable-background:new    ;}
	.st27{opacity:0.6878;fill:url(#SVGID_29_);enable-background:new    ;}
	.st28{opacity:0.7073;fill:url(#SVGID_30_);enable-background:new    ;}
	.st29{opacity:0.7268;fill:url(#SVGID_31_);enable-background:new    ;}
	.st30{opacity:0.7463;fill:url(#SVGID_32_);enable-background:new    ;}
	.st31{opacity:0.7659;fill:url(#SVGID_33_);enable-background:new    ;}
	.st32{opacity:0.7854;fill:url(#SVGID_34_);enable-background:new    ;}
	.st33{opacity:0.8049;fill:url(#SVGID_35_);enable-background:new    ;}
	.st34{opacity:0.8244;fill:url(#SVGID_36_);enable-background:new    ;}
	.st35{opacity:0.8439;fill:url(#SVGID_37_);enable-background:new    ;}
	.st36{opacity:0.8634;fill:url(#SVGID_38_);enable-background:new    ;}
	.st37{opacity:0.8829;fill:url(#SVGID_39_);enable-background:new    ;}
	.st38{opacity:0.9024;fill:url(#SVGID_40_);enable-background:new    ;}
	.st39{opacity:0.922;fill:url(#SVGID_41_);enable-background:new    ;}
	.st40{opacity:0.9415;fill:url(#SVGID_42_);enable-background:new    ;}
	.st41{opacity:0.961;fill:url(#SVGID_43_);enable-background:new    ;}
	.st42{opacity:0.9805;fill:url(#SVGID_44_);enable-background:new    ;}
	.st43{fill:url(#SVGID_45_);}
	.st44{fill:url(#SVGID_46_);}
	.st45{fill:#FFFFFF;stroke:#000000;stroke-miterlimit:10;}
	.st46{fill:none;}
	.st47{fill:#FFFFFF;}
	.st48{font-family:'MyriadPro-Bold';}
	.st49{font-size:36px;}
</style>
<g>
	<g>
		<g>
			
				<linearGradient id="SVGID_2_" gradientUnits="userSpaceOnUse" x1="126.9838" y1="108.3162" x2="12.7929" y2="222.5072" gradientTransform="matrix(1 0 0 -1 0 244)">
				<stop  offset="0" style="stop-color:#006169"/>
				<stop  offset="1.334453e-002" style="stop-color:#00646C"/>
				<stop  offset="0.1848" style="stop-color:#00818B"/>
				<stop  offset="0.364" style="stop-color:#0098A3"/>
				<stop  offset="0.5522" style="stop-color:#00A8B4"/>
				<stop  offset="0.7553" style="stop-color:#00B2BF"/>
				<stop  offset="1" style="stop-color:#00B5C2"/>
			</linearGradient>
			<polygon id="SVGID_1_" class="st0" points="225.3,123.8 115.1,234.1 0,119 110.3,8.7 			"/>
		</g>
		<g>
			<defs>
				<polygon id="SVGID_3_" points="225.3,123.8 115.1,234.1 0,119 110.3,8.7 				"/>
			</defs>
			<clipPath id="SVGID_4_">
				<use xlink:href="#SVGID_3_"  style="overflow:visible;"/>
			</clipPath>
			<g class="st1">
				<path class="st2" d="M54.9,15.8c16.7,21.7,38.2,64,30.9,101.1c-4.8,24.2-14.4,53.3-29.2,67.3l58.6,58.6L234.1,124L110.1,0
					L54.9,15.8z"/>
				
					<linearGradient id="SVGID_5_" gradientUnits="userSpaceOnUse" x1="108.9039" y1="61.4945" x2="156.6752" y2="259.6717" gradientTransform="matrix(0.9929 -1.720000e-002 -1.720000e-002 -0.9929 11.107 252.3359)">
					<stop  offset="0" style="stop-color:#F9FBFB"/>
					<stop  offset="1" style="stop-color:#FFFFFF"/>
				</linearGradient>
				<path class="st3" d="M55.4,16.3C72.1,38,93.2,80.1,85.9,117.1c-4.8,24.2-14.5,53-29.3,67l58.6,58.6L234.1,124L110.1,0L55.4,16.3
					z"/>
				
					<linearGradient id="SVGID_6_" gradientUnits="userSpaceOnUse" x1="102.0737" y1="66.6229" x2="150.3727" y2="266.9887" gradientTransform="matrix(0.9857 -3.450000e-002 -3.450000e-002 -0.9857 22.2729 259.0132)">
					<stop  offset="0" style="stop-color:#F3F6F7"/>
					<stop  offset="1" style="stop-color:#FFFFFF"/>
				</linearGradient>
				<path class="st4" d="M55.9,16.7c16.7,21.7,37.4,63.7,30,100.6c-4.8,24.2-14.6,52.8-29.4,66.8l58.6,58.6l119-118.7L110.1,0
					L55.9,16.7z"/>
				
					<linearGradient id="SVGID_7_" gradientUnits="userSpaceOnUse" x1="95.5113" y1="73.8362" x2="144.3109" y2="276.2792" gradientTransform="matrix(0.9786 -5.170000e-002 -5.170000e-002 -0.9786 33.3799 267.3491)">
					<stop  offset="0" style="stop-color:#EDF2F2"/>
					<stop  offset="1" style="stop-color:#FFFFFF"/>
				</linearGradient>
				<path class="st5" d="M56.4,17.2c16.7,21.7,37,63.5,29.6,100.4c-4.9,24.2-14.7,52.6-29.5,66.6l58.6,58.6l119-118.8L110.1,0
					L56.4,17.2z"/>
				
					<linearGradient id="SVGID_8_" gradientUnits="userSpaceOnUse" x1="89.0601" y1="79.752" x2="138.3433" y2="284.2012" gradientTransform="matrix(0.9714 -6.900000e-002 -6.900000e-002 -0.9714 44.5459 274.0264)">
					<stop  offset="0" style="stop-color:#E7EDEE"/>
					<stop  offset="1" style="stop-color:#FFFFFF"/>
				</linearGradient>
				<path class="st6" d="M57,17.6c16.7,21.7,36.7,63.3,29.2,100.2c-4.9,24.2-14.8,52.4-29.6,66.4l58.6,58.6L234.1,124L110.1,0
					L57,17.6z"/>
				
					<linearGradient id="SVGID_9_" gradientUnits="userSpaceOnUse" x1="82.9306" y1="87.7806" x2="132.6669" y2="294.1093" gradientTransform="matrix(0.9643 -8.620000e-002 -8.620000e-002 -0.9643 55.6528 282.3624)">
					<stop  offset="0" style="stop-color:#E1E9EA"/>
					<stop  offset="1" style="stop-color:#FFFFFF"/>
				</linearGradient>
				<path class="st7" d="M57.5,18.1c16.7,21.7,36.3,63.1,28.8,100c-4.9,24.2-14.9,52.1-29.6,66.2l58.6,58.6L234.1,124L110.1,0
					L57.5,18.1z"/>
				
					<linearGradient id="SVGID_10_" gradientUnits="userSpaceOnUse" x1="76.8454" y1="94.5104" x2="127.0136" y2="302.6305" gradientTransform="matrix(0.9571 -0.1035 -0.1035 -0.9571 66.8188 289.0396)">
					<stop  offset="0" style="stop-color:#DBE5E6"/>
					<stop  offset="1" style="stop-color:#FFFFFF"/>
				</linearGradient>
				<path class="st8" d="M58,18.5c16.7,21.7,35.9,62.9,28.4,99.7c-5,24.2-14.9,51.9-29.7,65.9l58.6,58.6L234.1,124L110.1,0L58,18.5z
					"/>
				
					<linearGradient id="SVGID_11_" gradientUnits="userSpaceOnUse" x1="71.2359" y1="103.3457" x2="121.8017" y2="313.1155" gradientTransform="matrix(0.95 -0.1207 -0.1207 -0.95 77.9258 297.3755)">
					<stop  offset="0" style="stop-color:#D5E0E1"/>
					<stop  offset="1" style="stop-color:#FFFFFF"/>
				</linearGradient>
				<path class="st9" d="M58.5,19C75.2,40.6,94,81.7,86.4,118.5c-5,24.2-15,51.7-29.8,65.7l58.6,58.6L234.1,124L110.1,0L58.5,19z"/>
				
					<linearGradient id="SVGID_12_" gradientUnits="userSpaceOnUse" x1="65.6512" y1="110.8659" x2="116.5894" y2="322.1811" gradientTransform="matrix(0.9428 -0.138 -0.138 -0.9428 89.0917 304.0527)">
					<stop  offset="0" style="stop-color:#CFDCDD"/>
					<stop  offset="1" style="stop-color:#FFFFFF"/>
				</linearGradient>
				<path class="st10" d="M59,19.4C75.7,41.1,94.2,82,86.5,118.7c-5,24.2-15.1,51.5-29.9,65.5l58.6,58.6L234.1,124L110.1,0L59,19.4z
					"/>
				
					<linearGradient id="SVGID_13_" gradientUnits="userSpaceOnUse" x1="60.6479" y1="120.4833" x2="111.9212" y2="333.1883" gradientTransform="matrix(0.9357 -0.1552 -0.1552 -0.9357 100.1987 312.3886)">
					<stop  offset="0" style="stop-color:#C9D7D9"/>
					<stop  offset="1" style="stop-color:#FFFFFF"/>
				</linearGradient>
				<path class="st11" d="M59.5,19.9C76.2,41.6,94.3,82.2,86.6,119c-5.1,24.2-15.2,51.3-30,65.3l58.6,58.6L234.1,124L110.1,0
					L59.5,19.9z"/>
				
					<linearGradient id="SVGID_14_" gradientUnits="userSpaceOnUse" x1="54.9696" y1="129.8031" x2="106.5434" y2="343.7547" gradientTransform="matrix(0.9286 -0.1725 -0.1725 -0.9286 112.1645 319.9249)">
					<stop  offset="0" style="stop-color:#C3D3D5"/>
					<stop  offset="1" style="stop-color:#FFFFFF"/>
				</linearGradient>
				<path class="st12" d="M60,20.3C76.7,42,94.4,82.5,86.7,119.1c-5.1,24.1-15.3,51-30.1,65l58.6,58.6L234.1,124L110.1,0L60,20.3z"
					/>
				
					<linearGradient id="SVGID_15_" gradientUnits="userSpaceOnUse" x1="51.3321" y1="139.1249" x2="103.1769" y2="354.2008" gradientTransform="matrix(0.9214 -0.1897 -0.1897 -0.9214 122.4716 327.4018)">
					<stop  offset="0" style="stop-color:#BECFD1"/>
					<stop  offset="1" style="stop-color:#FFFFFF"/>
				</linearGradient>
				<path class="st13" d="M60.5,20.8c16.7,21.7,34,62,26.3,98.6c-5.1,24.1-15.4,50.8-30.2,64.8l58.6,58.6L234.1,124L110.1,0
					L60.5,20.8z"/>
				
					<linearGradient id="SVGID_16_" gradientUnits="userSpaceOnUse" x1="45.2446" y1="149.4605" x2="97.3171" y2="365.4806" gradientTransform="matrix(0.9143 -0.207 -0.207 -0.9143 134.4374 334.9379)">
					<stop  offset="0" style="stop-color:#B8CACC"/>
					<stop  offset="1" style="stop-color:#FFFFFF"/>
				</linearGradient>
				<path class="st14" d="M61.1,21.2C77.7,42.9,94.7,83,86.9,119.6c-5.2,24.1-15.5,50.6-30.3,64.6l58.6,58.6L234.1,124L110.1,0
					L61.1,21.2z"/>
				
					<linearGradient id="SVGID_17_" gradientUnits="userSpaceOnUse" x1="40.4058" y1="159.8991" x2="92.6739" y2="376.7308" gradientTransform="matrix(0.9071 -0.2242 -0.2242 -0.9071 144.7445 342.415)">
					<stop  offset="0" style="stop-color:#B2C6C8"/>
					<stop  offset="1" style="stop-color:#FFFFFF"/>
				</linearGradient>
				<path class="st15" d="M61.6,21.7C78.2,43.3,94.9,83.2,87,119.8c-5.2,24.1-15.6,50.4-30.4,64.4l58.6,58.6L234.1,124L110.1,0
					L61.6,21.7z"/>
				
					<linearGradient id="SVGID_18_" gradientUnits="userSpaceOnUse" x1="35.3435" y1="171.7176" x2="87.7623" y2="389.1747" gradientTransform="matrix(0.9 -0.2414 -0.2414 -0.9 155.8515 350.751)">
					<stop  offset="0" style="stop-color:#ACC2C4"/>
					<stop  offset="1" style="stop-color:#FFFFFF"/>
				</linearGradient>
				<path class="st16" d="M62.1,22.1C78.7,43.8,95,83.5,87.1,120c-5.2,24.1-15.7,50.1-30.5,64.1l58.6,58.6L234.1,124L110.1,0
					L62.1,22.1z"/>
				
					<linearGradient id="SVGID_19_" gradientUnits="userSpaceOnUse" x1="30.1894" y1="182.1429" x2="82.7222" y2="400.0731" gradientTransform="matrix(0.8928 -0.2587 -0.2587 -0.8928 167.0175 357.4285)">
					<stop  offset="0" style="stop-color:#A6BDC0"/>
					<stop  offset="1" style="stop-color:#FFFFFF"/>
				</linearGradient>
				<path class="st17" d="M62.6,22.5c16.7,21.7,32.5,61.2,24.6,97.7c-5.3,24.1-15.8,49.9-30.6,63.9l58.6,58.6L234.1,124L110.1,0
					L62.6,22.5z"/>
				
					<linearGradient id="SVGID_20_" gradientUnits="userSpaceOnUse" x1="26.027" y1="194.5134" x2="78.6286" y2="412.7287" gradientTransform="matrix(0.8857 -0.2759 -0.2759 -0.8857 178.1244 365.764)">
					<stop  offset="0" style="stop-color:#A0B9BB"/>
					<stop  offset="1" style="stop-color:#FFFFFF"/>
				</linearGradient>
				<path class="st18" d="M63.1,23c16.7,21.7,32.2,61,24.2,97.5c-5.3,24.1-15.9,49.7-30.6,63.7l58.6,58.6L234.1,124L110.1,0L63.1,23
					z"/>
				
					<linearGradient id="SVGID_21_" gradientUnits="userSpaceOnUse" x1="21.1011" y1="206.6164" x2="73.7273" y2="424.934" gradientTransform="matrix(0.8786 -0.2932 -0.2932 -0.8786 190.0903 373.3003)">
					<stop  offset="0" style="stop-color:#9AB4B7"/>
					<stop  offset="1" style="stop-color:#FFFFFF"/>
				</linearGradient>
				<path class="st19" d="M63.6,23.4c16.7,21.7,31.8,60.8,23.7,97.3c-5.3,24.1-15.9,49.5-30.7,63.5l58.6,58.6L234.1,124L110.1,0
					L63.6,23.4z"/>
				
					<linearGradient id="SVGID_22_" gradientUnits="userSpaceOnUse" x1="18.3453" y1="218.3287" x2="70.961" y2="436.602" gradientTransform="matrix(0.8714 -0.3104 -0.3104 -0.8714 200.3974 380.7773)">
					<stop  offset="0" style="stop-color:#94B0B3"/>
					<stop  offset="1" style="stop-color:#FFFFFF"/>
				</linearGradient>
				<path class="st20" d="M64.1,23.9c16.7,21.7,31.4,60.6,23.3,97c-5.4,24.1-16,49.2-30.8,63.2l58.6,58.6L234.1,124L110.1,0
					L64.1,23.9z"/>
				
					<linearGradient id="SVGID_23_" gradientUnits="userSpaceOnUse" x1="14.3926" y1="230.8693" x2="66.9469" y2="448.8886" gradientTransform="matrix(0.8643 -0.3277 -0.3277 -0.8643 212.3632 388.3135)">
					<stop  offset="0" style="stop-color:#8EACAF"/>
					<stop  offset="1" style="stop-color:#FFFFFF"/>
				</linearGradient>
				<path class="st21" d="M64.6,24.3c16.7,21.7,31,60.5,22.9,96.8c-5.4,24.1-16.1,49-30.9,63l58.6,58.6L234.1,124L110.1,0L64.6,24.3
					z"/>
				
					<linearGradient id="SVGID_24_" gradientUnits="userSpaceOnUse" x1="12.5423" y1="242.9138" x2="65" y2="460.5323" gradientTransform="matrix(0.8571 -0.3449 -0.3449 -0.8571 222.6704 395.791)">
					<stop  offset="0" style="stop-color:#88A7AB"/>
					<stop  offset="1" style="stop-color:#FFFFFF"/>
				</linearGradient>
				<path class="st22" d="M65.1,24.8c16.7,21.7,30.7,60.3,22.5,96.6c-5.4,24.1-16.2,48.8-31,62.8l58.6,58.6L234.1,124L110.1,0
					L65.1,24.8z"/>
				
					<linearGradient id="SVGID_25_" gradientUnits="userSpaceOnUse" x1="9.5504" y1="255.7881" x2="61.8608" y2="472.7953" gradientTransform="matrix(0.85 -0.3622 -0.3622 -0.85 234.6361 403.3267)">
					<stop  offset="0" style="stop-color:#82A3A6"/>
					<stop  offset="1" style="stop-color:#FFFFFF"/>
				</linearGradient>
				<path class="st23" d="M65.7,25.2c16.7,21.7,30.3,60.1,22,96.4c-5.5,24.1-16.3,48.6-31.1,62.6l58.6,58.6L234.1,124L110.1,0
					L65.7,25.2z"/>
				
					<linearGradient id="SVGID_26_" gradientUnits="userSpaceOnUse" x1="8.6425" y1="268.043" x2="60.7708" y2="484.2949" gradientTransform="matrix(0.8428 -0.3794 -0.3794 -0.8428 244.9432 410.8035)">
					<stop  offset="0" style="stop-color:#7C9EA2"/>
					<stop  offset="1" style="stop-color:#FFFFFF"/>
				</linearGradient>
				<path class="st24" d="M66.2,25.7c16.7,21.7,29.9,59.9,21.6,96.2c-5.5,24.1-16.4,48.3-31.2,62.4l58.6,58.6L234.1,124L110.1,0
					L66.2,25.7z"/>
				
					<linearGradient id="SVGID_27_" gradientUnits="userSpaceOnUse" x1="6.6569" y1="281.123" x2="58.5532" y2="496.4123" gradientTransform="matrix(0.8357 -0.3967 -0.3967 -0.8357 256.909 418.3397)">
					<stop  offset="0" style="stop-color:#769A9E"/>
					<stop  offset="1" style="stop-color:#FFFFFF"/>
				</linearGradient>
				<path class="st25" d="M66.7,26.1C83.4,47.8,96.2,85.8,87.9,122c-5.5,24-16.5,48.1-31.3,62.1l58.6,58.6L234.1,124L110.1,0
					L66.7,26.1z"/>
				
					<linearGradient id="SVGID_28_" gradientUnits="userSpaceOnUse" x1="6.7037" y1="293.4664" x2="58.3347" y2="507.655" gradientTransform="matrix(0.8285 -0.4139 -0.4139 -0.8285 267.216 425.817)">
					<stop  offset="0" style="stop-color:#70969A"/>
					<stop  offset="1" style="stop-color:#FFFFFF"/>
				</linearGradient>
				<path class="st26" d="M67.2,26.6C83.9,48.2,96.4,86.1,88,122.3c-5.6,24-16.6,47.9-31.4,61.9l58.6,58.6L234.1,124L110.1,0
					L67.2,26.6z"/>
				
					<linearGradient id="SVGID_29_" gradientUnits="userSpaceOnUse" x1="5.6874" y1="306.6343" x2="57.0047" y2="519.5218" gradientTransform="matrix(0.8214 -0.4312 -0.4312 -0.8214 279.182 433.3526)">
					<stop  offset="0" style="stop-color:#6A9196"/>
					<stop  offset="1" style="stop-color:#FFFFFF"/>
				</linearGradient>
				<path class="st27" d="M67.7,27c16.7,21.7,28.8,59.3,20.4,95.5c-5.6,24-16.7,47.7-31.5,61.7l58.6,58.6L234.1,124L110.1,0L67.7,27
					z"/>
				
					<linearGradient id="SVGID_30_" gradientUnits="userSpaceOnUse" x1="6.2998" y1="320.148" x2="57.2681" y2="531.5879" gradientTransform="matrix(0.8143 -0.4484 -0.4484 -0.8143 290.2889 441.6887)">
					<stop  offset="0" style="stop-color:#648D91"/>
					<stop  offset="1" style="stop-color:#FFFFFF"/>
				</linearGradient>
				<path class="st28" d="M68.2,27.5c16.7,21.7,28.4,59.1,19.9,95.3c-5.6,24-16.8,47.5-31.6,61.5l58.6,58.6l119-118.9L110.1,0
					L68.2,27.5z"/>
				
					<linearGradient id="SVGID_31_" gradientUnits="userSpaceOnUse" x1="6.6659" y1="332.0626" x2="57.2478" y2="541.899" gradientTransform="matrix(0.8071 -0.4657 -0.4657 -0.8071 301.455 448.3661)">
					<stop  offset="0" style="stop-color:#5E888D"/>
					<stop  offset="1" style="stop-color:#FFFFFF"/>
				</linearGradient>
				<path class="st29" d="M68.7,27.9c16.7,21.7,28,59,19.5,95c-5.7,24-16.9,47.2-31.6,61.2l58.6,58.6L234.1,124L110.1,0L68.7,27.9z"
					/>
				
					<linearGradient id="SVGID_32_" gradientUnits="userSpaceOnUse" x1="8.2944" y1="345.4126" x2="58.4533" y2="553.4946" gradientTransform="matrix(0.8 -0.4829 -0.4829 -0.8 312.562 456.7022)">
					<stop  offset="0" style="stop-color:#588489"/>
					<stop  offset="1" style="stop-color:#FFFFFF"/>
				</linearGradient>
				<path class="st30" d="M69.2,28.4C85.9,50,96.9,87.1,88.3,123.2c-5.7,24-16.9,47-31.7,61l58.6,58.6L234.1,124L110.1,0L69.2,28.4z
					"/>
				
					<linearGradient id="SVGID_33_" gradientUnits="userSpaceOnUse" x1="10.6732" y1="357.4305" x2="60.3783" y2="563.6301" gradientTransform="matrix(0.7928 -0.5001 -0.5001 -0.7928 322.869 464.179)">
					<stop  offset="0" style="stop-color:#528085"/>
					<stop  offset="1" style="stop-color:#FFFFFF"/>
				</linearGradient>
				<path class="st31" d="M69.8,28.8C86.4,50.5,97,87.4,88.4,123.4c-5.7,24-17,46.8-31.8,60.8l58.6,58.6L234.1,124L110.1,0
					L69.8,28.8z"/>
				
					<linearGradient id="SVGID_34_" gradientUnits="userSpaceOnUse" x1="12.0748" y1="370.2511" x2="61.2853" y2="574.3987" gradientTransform="matrix(0.7857 -0.5174 -0.5174 -0.7857 334.8347 471.7158)">
					<stop  offset="0" style="stop-color:#4C7B80"/>
					<stop  offset="1" style="stop-color:#FFFFFF"/>
				</linearGradient>
				<path class="st32" d="M70.3,29.3C87,51,97.2,87.7,88.6,123.7c-5.8,24-17.1,46.6-31.9,60.6l58.6,58.6L234.1,124L110.1,0
					L70.3,29.3z"/>
				
					<linearGradient id="SVGID_35_" gradientUnits="userSpaceOnUse" x1="15.2875" y1="381.9514" x2="63.98" y2="583.9498" gradientTransform="matrix(0.7785 -0.5346 -0.5346 -0.7785 345.142 479.1925)">
					<stop  offset="0" style="stop-color:#47777C"/>
					<stop  offset="1" style="stop-color:#FFFFFF"/>
				</linearGradient>
				<path class="st33" d="M70.8,29.7c16.7,21.7,26.5,58.2,17.8,94.1c-5.8,24-17.2,46.3-32,60.3l58.6,58.6L234.1,124L110.1,0
					L70.8,29.7z"/>
				
					<linearGradient id="SVGID_36_" gradientUnits="userSpaceOnUse" x1="17.5232" y1="394.4514" x2="65.6608" y2="594.1473" gradientTransform="matrix(0.7714 -0.5519 -0.5519 -0.7714 357.1077 486.7282)">
					<stop  offset="0" style="stop-color:#417378"/>
					<stop  offset="1" style="stop-color:#FFFFFF"/>
				</linearGradient>
				<path class="st34" d="M71.3,30.1C88,51.8,97.5,88.1,88.7,124c-5.8,24-17.3,46.1-32.1,60.1l58.6,58.6L234.1,124L110.1,0
					L71.3,30.1z"/>
				
					<linearGradient id="SVGID_37_" gradientUnits="userSpaceOnUse" x1="21.3485" y1="406.9258" x2="68.9084" y2="604.2258" gradientTransform="matrix(0.7643 -0.5691 -0.5691 -0.7643 368.2146 495.0642)">
					<stop  offset="0" style="stop-color:#3B6E74"/>
					<stop  offset="1" style="stop-color:#FFFFFF"/>
				</linearGradient>
				<path class="st35" d="M71.8,30.6c16.7,21.7,25.8,57.8,17,93.7c-5.9,24-17.4,45.9-32.2,59.9l58.6,58.6L234.1,124L110.1,0
					L71.8,30.6z"/>
				
					<linearGradient id="SVGID_38_" gradientUnits="userSpaceOnUse" x1="24.5452" y1="417.8168" x2="71.5006" y2="612.6091" gradientTransform="matrix(0.7571 -0.5864 -0.5864 -0.7571 379.3806 501.7417)">
					<stop  offset="0" style="stop-color:#356A70"/>
					<stop  offset="1" style="stop-color:#FFFFFF"/>
				</linearGradient>
				<path class="st36" d="M72.3,31C89,52.7,97.7,88.7,88.9,124.5c-5.9,24-17.5,45.7-32.3,59.7l58.6,58.6L234.1,124L110.1,0L72.3,31z
					"/>
				
					<linearGradient id="SVGID_39_" gradientUnits="userSpaceOnUse" x1="29.164" y1="429.7743" x2="75.4938" y2="621.9715" gradientTransform="matrix(0.75 -0.6036 -0.6036 -0.75 390.4876 510.0783)">
					<stop  offset="0" style="stop-color:#2F656B"/>
					<stop  offset="1" style="stop-color:#FFFFFF"/>
				</linearGradient>
				<path class="st37" d="M72.8,31.5c16.7,21.7,25,57.4,16.2,93.2c-5.9,24-17.6,45.4-32.4,59.4l58.6,58.6L234.1,124L110.1,0
					L72.8,31.5z"/>
				
					<linearGradient id="SVGID_40_" gradientUnits="userSpaceOnUse" x1="33.0151" y1="440.1777" x2="78.6962" y2="629.6833" gradientTransform="matrix(0.7428 -0.6209 -0.6209 -0.7428 401.6537 516.7546)">
					<stop  offset="0" style="stop-color:#296167"/>
					<stop  offset="1" style="stop-color:#FFFFFF"/>
				</linearGradient>
				<path class="st38" d="M73.3,31.9C90,53.6,98,89.2,89.1,125c-6,23.9-17.7,45.2-32.5,59.2l58.6,58.6L234.1,124L110.1,0L73.3,31.9z
					"/>
				
					<linearGradient id="SVGID_41_" gradientUnits="userSpaceOnUse" x1="38.2816" y1="451.5621" x2="83.2975" y2="638.3086" gradientTransform="matrix(0.7357 -0.6381 -0.6381 -0.7357 412.7606 525.0907)">
					<stop  offset="0" style="stop-color:#235D63"/>
					<stop  offset="1" style="stop-color:#FFFFFF"/>
				</linearGradient>
				<path class="st39" d="M73.9,32.4c16.6,21.6,24.2,57,15.3,92.8c-6,23.9-17.8,45-32.6,59l58.6,58.6L234.1,124L110.1,0L73.9,32.4z"
					/>
				
					<linearGradient id="SVGID_42_" gradientUnits="userSpaceOnUse" x1="42.7511" y1="461.4075" x2="87.0824" y2="645.314" gradientTransform="matrix(0.7285 -0.6554 -0.6554 -0.7285 423.9264 531.7682)">
					<stop  offset="0" style="stop-color:#1D585F"/>
					<stop  offset="1" style="stop-color:#FFFFFF"/>
				</linearGradient>
				<path class="st40" d="M74.4,32.8C91,54.5,98.3,89.7,89.3,125.4c-6,23.9-17.9,44.8-32.7,58.8l58.6,58.6L234.1,124L110.1,0
					L74.4,32.8z"/>
				
					<linearGradient id="SVGID_43_" gradientUnits="userSpaceOnUse" x1="48.6663" y1="472.1429" x2="92.3013" y2="653.1608" gradientTransform="matrix(0.7214 -0.6726 -0.6726 -0.7214 435.0334 540.1038)">
					<stop  offset="0" style="stop-color:#17545A"/>
					<stop  offset="1" style="stop-color:#FFFFFF"/>
				</linearGradient>
				<path class="st41" d="M74.9,33.3C91.6,54.9,98.4,90,89.4,125.6c-6.1,23.9-18,44.5-32.7,58.5l58.6,58.6L234.1,124L110.1,0
					L74.9,33.3z"/>
				
					<linearGradient id="SVGID_44_" gradientUnits="userSpaceOnUse" x1="53.6481" y1="481.3894" x2="96.571" y2="659.4534" gradientTransform="matrix(0.7142 -0.6899 -0.6899 -0.7142 446.1994 546.7821)">
					<stop  offset="0" style="stop-color:#114F56"/>
					<stop  offset="1" style="stop-color:#FFFFFF"/>
				</linearGradient>
				<path class="st42" d="M75.4,33.7c16.7,21.7,23.2,56.5,14.1,92.1c-6.1,23.9-18,44.3-32.8,58.3l58.6,58.6L234.1,124L110.1,0
					L75.4,33.7z"/>
				
					<linearGradient id="SVGID_45_" gradientUnits="userSpaceOnUse" x1="59.9224" y1="491.4852" x2="102.126" y2="666.5649" gradientTransform="matrix(0.7071 -0.7071 -0.7071 -0.7071 457.3064 555.1172)">
					<stop  offset="0" style="stop-color:#0B4B52"/>
					<stop  offset="1" style="stop-color:#FFFFFF"/>
				</linearGradient>
				<path class="st43" d="M75.9,34.2c16.7,21.7,22.8,56.3,13.6,91.9c-6.1,23.9-18.1,44.1-32.9,58.1l58.6,58.6L234.1,124L110.1,0
					L75.9,34.2z"/>
			</g>
		</g>
	</g>
	
		<linearGradient id="SVGID_46_" gradientUnits="userSpaceOnUse" x1="1.1357" y1="442.3129" x2="139.1427" y2="580.3198" gradientTransform="matrix(0.7071 -0.7071 -0.7071 -0.7071 457.3064 555.1172)">
		<stop  offset="0" style="stop-color:#006E78"/>
		<stop  offset="0.2076" style="stop-color:#00848F"/>
		<stop  offset="0.5215" style="stop-color:#009FAB"/>
		<stop  offset="0.7963" style="stop-color:#00AFBC"/>
		<stop  offset="1" style="stop-color:#00B5C2"/>
	</linearGradient>
	<path class="st44" d="M75.9,34.2c16.7,21.7,22.8,56.3,13.6,91.9c-6.1,23.9-18.1,44.1-32.9,58.1l58.6,58.6L234.1,124L110.1,0
		L75.9,34.2z"/>
</g>
<path class="st45" d="M33.7,96.3"/>
<rect x="27.3" y="100.7" class="st46" width="47" height="37.7"/>
<text transform="matrix(1 0 0 1 30.8535 126.2266)" class="st47 st48 st49">03</text>
</svg>
