<?xml version="1.0" encoding="utf-8"?>
<!-- Generator: Adobe Illustrator 19.2.1, SVG Export Plug-In . SVG Version: 6.00 Build 0)  -->
<svg version="1.1" id="Layer_1" xmlns="http://www.w3.org/2000/svg" xmlns:xlink="http://www.w3.org/1999/xlink" x="0px" y="0px"
	 viewBox="0 0 234.1 242.8" style="enable-background:new 0 0 234.1 242.8;" xml:space="preserve">
<style type="text/css">
	.st0{clip-path:url(#SVGID_3_);}
	.st1{opacity:0.2;fill:#FFFFFF;}
	.st2{opacity:0.2195;fill:url(#SVGID_4_);}
	.st3{opacity:0.239;fill:url(#SVGID_5_);}
	.st4{opacity:0.2585;fill:url(#SVGID_6_);}
	.st5{opacity:0.278;fill:url(#SVGID_7_);}
	.st6{opacity:0.2976;fill:url(#SVGID_8_);}
	.st7{opacity:0.3171;fill:url(#SVGID_9_);}
	.st8{opacity:0.3366;fill:url(#SVGID_10_);}
	.st9{opacity:0.3561;fill:url(#SVGID_11_);}
	.st10{opacity:0.3756;fill:url(#SVGID_12_);}
	.st11{opacity:0.3951;fill:url(#SVGID_13_);}
	.st12{opacity:0.4146;fill:url(#SVGID_14_);}
	.st13{opacity:0.4341;fill:url(#SVGID_15_);}
	.st14{opacity:0.4537;fill:url(#SVGID_16_);}
	.st15{opacity:0.4732;fill:url(#SVGID_17_);}
	.st16{opacity:0.4927;fill:url(#SVGID_18_);}
	.st17{opacity:0.5122;fill:url(#SVGID_19_);}
	.st18{opacity:0.5317;fill:url(#SVGID_20_);}
	.st19{opacity:0.5512;fill:url(#SVGID_21_);}
	.st20{opacity:0.5707;fill:url(#SVGID_22_);}
	.st21{opacity:0.5902;fill:url(#SVGID_23_);}
	.st22{opacity:0.6098;fill:url(#SVGID_24_);}
	.st23{opacity:0.6293;fill:url(#SVGID_25_);}
	.st24{opacity:0.6488;fill:url(#SVGID_26_);}
	.st25{opacity:0.6683;fill:url(#SVGID_27_);}
	.st26{opacity:0.6878;fill:url(#SVGID_28_);}
	.st27{opacity:0.7073;fill:url(#SVGID_29_);}
	.st28{opacity:0.7268;fill:url(#SVGID_30_);}
	.st29{opacity:0.7463;fill:url(#SVGID_31_);}
	.st30{opacity:0.7659;fill:url(#SVGID_32_);}
	.st31{opacity:0.7854;fill:url(#SVGID_33_);}
	.st32{opacity:0.8049;fill:url(#SVGID_34_);}
	.st33{opacity:0.8244;fill:url(#SVGID_35_);}
	.st34{opacity:0.8439;fill:url(#SVGID_36_);}
	.st35{opacity:0.8634;fill:url(#SVGID_37_);}
	.st36{opacity:0.8829;fill:url(#SVGID_38_);}
	.st37{opacity:0.9024;fill:url(#SVGID_39_);}
	.st38{opacity:0.922;fill:url(#SVGID_40_);}
	.st39{opacity:0.9415;fill:url(#SVGID_41_);}
	.st40{opacity:0.961;fill:url(#SVGID_42_);}
	.st41{opacity:0.9805;fill:url(#SVGID_43_);}
	.st42{fill:url(#SVGID_44_);}
	.st43{fill:url(#SVGID_45_);}
</style>
<g>
	<g>
		<defs>
			<polygon id="SVGID_1_" points="225.3,123.8 115.1,234.1 0,119 110.3,8.7 			"/>
		</defs>
		<linearGradient id="SVGID_2_" gradientUnits="userSpaceOnUse" x1="126.9613" y1="135.7063" x2="12.7704" y2="21.5153">
			<stop  offset="0" style="stop-color:#006169"/>
			<stop  offset="1.334453e-002" style="stop-color:#00646C"/>
			<stop  offset="0.1848" style="stop-color:#00818B"/>
			<stop  offset="0.364" style="stop-color:#0098A3"/>
			<stop  offset="0.5522" style="stop-color:#00A8B4"/>
			<stop  offset="0.7553" style="stop-color:#00B2BF"/>
			<stop  offset="1" style="stop-color:#00B5C2"/>
		</linearGradient>
		<use xlink:href="#SVGID_1_"  style="overflow:visible;fill:url(#SVGID_2_);"/>
		<clipPath id="SVGID_3_">
			<use xlink:href="#SVGID_1_"  style="overflow:visible;"/>
		</clipPath>
		<g class="st0">
			<path class="st1" d="M54.9,15.8c16.7,21.7,38.2,64,30.9,101.1c-4.8,24.2-14.4,53.3-29.2,67.3l58.6,58.6L234.1,124L110.1,0
				L54.9,15.8z"/>
			
				<linearGradient id="SVGID_4_" gradientUnits="userSpaceOnUse" x1="112.3864" y1="177.3478" x2="160.1577" y2="-20.8294" gradientTransform="matrix(0.9929 -1.720000e-002 1.720000e-002 0.9929 3.5322 15.2473)">
				<stop  offset="0" style="stop-color:#F9FBFB"/>
				<stop  offset="1" style="stop-color:#FFFFFF"/>
			</linearGradient>
			<path class="st2" d="M55.4,16.3C72.1,38,93.2,80.1,85.9,117.1c-4.8,24.2-14.5,53-29.3,67l58.6,58.6L234.1,124L110.1,0L55.4,16.3z
				"/>
			
				<linearGradient id="SVGID_5_" gradientUnits="userSpaceOnUse" x1="109.2986" y1="167.0751" x2="157.5975" y2="-33.2907" gradientTransform="matrix(0.9857 -3.450000e-002 3.450000e-002 0.9857 7.0903 28.9066)">
				<stop  offset="0" style="stop-color:#F3F6F7"/>
				<stop  offset="1" style="stop-color:#FFFFFF"/>
			</linearGradient>
			<path class="st3" d="M55.9,16.7c16.7,21.7,37.4,63.7,30,100.6c-4.8,24.2-14.6,52.8-29.4,66.8l58.6,58.6L234.1,124L110.1,0
				L55.9,16.7z"/>
			
				<linearGradient id="SVGID_6_" gradientUnits="userSpaceOnUse" x1="106.6884" y1="154.8308" x2="155.488" y2="-47.6122" gradientTransform="matrix(0.9786 -5.170000e-002 5.170000e-002 0.9786 10.6225 44.1539)">
				<stop  offset="0" style="stop-color:#EDF2F2"/>
				<stop  offset="1" style="stop-color:#FFFFFF"/>
			</linearGradient>
			<path class="st4" d="M56.4,17.2c16.7,21.7,37,63.5,29.6,100.4c-4.9,24.2-14.7,52.6-29.5,66.6l58.6,58.6L234.1,124L110.1,0
				L56.4,17.2z"/>
			
				<linearGradient id="SVGID_7_" gradientUnits="userSpaceOnUse" x1="104.395" y1="143.91" x2="153.6782" y2="-60.5392" gradientTransform="matrix(0.9714 -6.900000e-002 6.900000e-002 0.9714 14.1807 57.8132)">
				<stop  offset="0" style="stop-color:#E7EDEE"/>
				<stop  offset="1" style="stop-color:#FFFFFF"/>
			</linearGradient>
			<path class="st5" d="M57,17.6c16.7,21.7,36.7,63.3,29.2,100.2c-4.9,24.2-14.8,52.4-29.6,66.4l58.6,58.6L234.1,124L110.1,0
				L57,17.6z"/>
			
				<linearGradient id="SVGID_8_" gradientUnits="userSpaceOnUse" x1="102.6796" y1="131.0299" x2="152.4159" y2="-75.2987" gradientTransform="matrix(0.9643 -8.620000e-002 8.620000e-002 0.9643 17.7128 73.0606)">
				<stop  offset="0" style="stop-color:#E1E9EA"/>
				<stop  offset="1" style="stop-color:#FFFFFF"/>
			</linearGradient>
			<path class="st6" d="M57.5,18.1c16.7,21.7,36.3,63.1,28.8,100c-4.9,24.2-14.9,52.1-29.6,66.2l58.6,58.6L234.1,124L110.1,0
				L57.5,18.1z"/>
			
				<linearGradient id="SVGID_9_" gradientUnits="userSpaceOnUse" x1="101.2637" y1="119.5151" x2="151.4319" y2="-88.605" gradientTransform="matrix(0.9571 -0.1035 0.1035 0.9571 21.271 86.7198)">
				<stop  offset="0" style="stop-color:#DBE5E6"/>
				<stop  offset="1" style="stop-color:#FFFFFF"/>
			</linearGradient>
			<path class="st7" d="M58,18.5c16.7,21.7,35.9,62.9,28.4,99.7c-5,24.2-14.9,51.9-29.7,65.9l58.6,58.6L234.1,124L110.1,0L58,18.5z"
				/>
			
				<linearGradient id="SVGID_10_" gradientUnits="userSpaceOnUse" x1="100.5244" y1="106.0659" x2="151.0902" y2="-103.7039" gradientTransform="matrix(0.95 -0.1207 0.1207 0.95 24.8032 101.9671)">
				<stop  offset="0" style="stop-color:#D5E0E1"/>
				<stop  offset="1" style="stop-color:#FFFFFF"/>
			</linearGradient>
			<path class="st8" d="M58.5,19C75.2,40.6,94,81.7,86.4,118.5c-5,24.2-15,51.7-29.8,65.7l58.6,58.6L234.1,124L110.1,0L58.5,19z"/>
			
				<linearGradient id="SVGID_11_" gradientUnits="userSpaceOnUse" x1="100.0604" y1="94.0276" x2="150.9986" y2="-117.2876" gradientTransform="matrix(0.9428 -0.138 0.138 0.9428 28.3613 115.6263)">
				<stop  offset="0" style="stop-color:#CFDCDD"/>
				<stop  offset="1" style="stop-color:#FFFFFF"/>
			</linearGradient>
			<path class="st9" d="M59,19.4C75.7,41.1,94.2,82,86.5,118.7c-5,24.2-15.1,51.5-29.9,65.5l58.6,58.6L234.1,124L110.1,0L59,19.4z"
				/>
			
				<linearGradient id="SVGID_12_" gradientUnits="userSpaceOnUse" x1="100.3674" y1="80.0924" x2="151.6407" y2="-132.6125" gradientTransform="matrix(0.9357 -0.1552 0.1552 0.9357 31.8935 130.8736)">
				<stop  offset="0" style="stop-color:#C9D7D9"/>
				<stop  offset="1" style="stop-color:#FFFFFF"/>
			</linearGradient>
			<path class="st10" d="M59.5,19.9c16.7,21.7,34.8,62.3,27.1,99.1c-5.1,24.2-15.2,51.3-30,65.3l58.6,58.6L234.1,124L110.1,0
				L59.5,19.9z"/>
			
				<linearGradient id="SVGID_13_" gradientUnits="userSpaceOnUse" x1="100.2494" y1="66.6167" x2="151.8232" y2="-147.3349" gradientTransform="matrix(0.9286 -0.1725 0.1725 0.9286 36.2327 145.3401)">
				<stop  offset="0" style="stop-color:#C3D3D5"/>
				<stop  offset="1" style="stop-color:#FFFFFF"/>
			</linearGradient>
			<path class="st11" d="M60,20.3C76.7,42,94.4,82.5,86.7,119.1c-5.1,24.1-15.3,51-30.1,65l58.6,58.6L234.1,124L110.1,0L60,20.3z"/>
			
				<linearGradient id="SVGID_14_" gradientUnits="userSpaceOnUse" x1="102.3288" y1="53.2951" x2="154.1736" y2="-161.7808" gradientTransform="matrix(0.9214 -0.1897 0.1897 0.9214 38.9838 159.7802)">
				<stop  offset="0" style="stop-color:#BECFD1"/>
				<stop  offset="1" style="stop-color:#FFFFFF"/>
			</linearGradient>
			<path class="st12" d="M60.5,20.8c16.7,21.7,34,62,26.3,98.6c-5.1,24.1-15.4,50.8-30.2,64.8l58.6,58.6L234.1,124L110.1,0
				L60.5,20.8z"/>
			
				<linearGradient id="SVGID_15_" gradientUnits="userSpaceOnUse" x1="102.1764" y1="39.1823" x2="154.2489" y2="-176.8378" gradientTransform="matrix(0.9143 -0.207 0.207 0.9143 43.323 174.2465)">
				<stop  offset="0" style="stop-color:#B8CACC"/>
				<stop  offset="1" style="stop-color:#FFFFFF"/>
			</linearGradient>
			<path class="st13" d="M61.1,21.2C77.7,42.9,94.7,83,86.9,119.6c-5.2,24.1-15.5,50.6-30.3,64.6l58.6,58.6L234.1,124L110.1,0
				L61.1,21.2z"/>
			
				<linearGradient id="SVGID_16_" gradientUnits="userSpaceOnUse" x1="103.4308" y1="25.1505" x2="155.6989" y2="-191.6812" gradientTransform="matrix(0.9071 -0.2242 0.2242 0.9071 46.0741 188.6868)">
				<stop  offset="0" style="stop-color:#B2C6C8"/>
				<stop  offset="1" style="stop-color:#FFFFFF"/>
			</linearGradient>
			<path class="st14" d="M61.6,21.7C78.2,43.3,94.9,83.2,87,119.8c-5.2,24.1-15.6,50.4-30.4,64.4l58.6,58.6L234.1,124L110.1,0
				L61.6,21.7z"/>
			
				<linearGradient id="SVGID_17_" gradientUnits="userSpaceOnUse" x1="104.6386" y1="9.999" x2="157.0574" y2="-207.4581" gradientTransform="matrix(0.9 -0.2414 0.2414 0.9 49.6063 203.9342)">
				<stop  offset="0" style="stop-color:#ACC2C4"/>
				<stop  offset="1" style="stop-color:#FFFFFF"/>
			</linearGradient>
			<path class="st15" d="M62.1,22.1C78.7,43.8,95,83.5,87.1,120c-5.2,24.1-15.7,50.1-30.5,64.1l58.6,58.6L234.1,124L110.1,0
				L62.1,22.1z"/>
			
				<linearGradient id="SVGID_18_" gradientUnits="userSpaceOnUse" x1="105.952" y1="-3.5641" x2="158.4848" y2="-221.4942" gradientTransform="matrix(0.8928 -0.2587 0.2587 0.8928 53.1645 217.5937)">
				<stop  offset="0" style="stop-color:#A6BDC0"/>
				<stop  offset="1" style="stop-color:#FFFFFF"/>
			</linearGradient>
			<path class="st16" d="M62.6,22.5c16.7,21.7,32.5,61.2,24.6,97.7c-5.3,24.1-15.8,49.9-30.6,63.9l58.6,58.6L234.1,124L110.1,0
				L62.6,22.5z"/>
			
				<linearGradient id="SVGID_19_" gradientUnits="userSpaceOnUse" x1="108.3196" y1="-18.7971" x2="160.9212" y2="-237.0124" gradientTransform="matrix(0.8857 -0.2759 0.2759 0.8857 56.6966 232.8406)">
				<stop  offset="0" style="stop-color:#A0B9BB"/>
				<stop  offset="1" style="stop-color:#FFFFFF"/>
			</linearGradient>
			<path class="st17" d="M63.1,23c16.7,21.7,32.2,61,24.2,97.5c-5.3,24.1-15.9,49.7-30.6,63.7l58.6,58.6L234.1,124L110.1,0L63.1,23z
				"/>
			
				<linearGradient id="SVGID_20_" gradientUnits="userSpaceOnUse" x1="110.1974" y1="-33.4805" x2="162.8237" y2="-251.7981" gradientTransform="matrix(0.8786 -0.2932 0.2932 0.8786 61.0359 247.3071)">
				<stop  offset="0" style="stop-color:#9AB4B7"/>
				<stop  offset="1" style="stop-color:#FFFFFF"/>
			</linearGradient>
			<path class="st18" d="M63.6,23.4c16.7,21.7,31.8,60.8,23.7,97.3c-5.3,24.1-15.9,49.5-30.7,63.5l58.6,58.6L234.1,124L110.1,0
				L63.6,23.4z"/>
			
				<linearGradient id="SVGID_21_" gradientUnits="userSpaceOnUse" x1="114.2697" y1="-47.5614" x2="166.8853" y2="-265.8347" gradientTransform="matrix(0.8714 -0.3104 0.3104 0.8714 63.787 261.7473)">
				<stop  offset="0" style="stop-color:#94B0B3"/>
				<stop  offset="1" style="stop-color:#FFFFFF"/>
			</linearGradient>
			<path class="st19" d="M64.1,23.9c16.7,21.7,31.4,60.6,23.3,97c-5.4,24.1-16,49.2-30.8,63.2l58.6,58.6L234.1,124L110.1,0
				L64.1,23.9z"/>
			
				<linearGradient id="SVGID_22_" gradientUnits="userSpaceOnUse" x1="117.288" y1="-62.1539" x2="169.8423" y2="-280.1732" gradientTransform="matrix(0.8643 -0.3277 0.3277 0.8643 68.1262 276.2137)">
				<stop  offset="0" style="stop-color:#8EACAF"/>
				<stop  offset="1" style="stop-color:#FFFFFF"/>
			</linearGradient>
			<path class="st20" d="M64.6,24.3c16.7,21.7,31,60.5,22.9,96.8c-5.4,24.1-16.1,49-30.9,63l58.6,58.6L234.1,124L110.1,0L64.6,24.3z
				"/>
			
				<linearGradient id="SVGID_23_" gradientUnits="userSpaceOnUse" x1="122.4695" y1="-76.0115" x2="174.9272" y2="-293.63" gradientTransform="matrix(0.8571 -0.3449 0.3449 0.8571 70.8774 290.6544)">
				<stop  offset="0" style="stop-color:#88A7AB"/>
				<stop  offset="1" style="stop-color:#FFFFFF"/>
			</linearGradient>
			<path class="st21" d="M65.1,24.8c16.7,21.7,30.7,60.3,22.5,96.6c-5.4,24.1-16.2,48.8-31,62.8l58.6,58.6L234.1,124L110.1,0
				L65.1,24.8z"/>
			
				<linearGradient id="SVGID_24_" gradientUnits="userSpaceOnUse" x1="126.6043" y1="-90.3705" x2="178.9147" y2="-307.3777" gradientTransform="matrix(0.85 -0.3622 0.3622 0.85 75.2165 305.1203)">
				<stop  offset="0" style="stop-color:#82A3A6"/>
				<stop  offset="1" style="stop-color:#FFFFFF"/>
			</linearGradient>
			<path class="st22" d="M65.7,25.2c16.7,21.7,30.3,60.1,22,96.4c-5.5,24.1-16.3,48.6-31.1,62.6l58.6,58.6L234.1,124L110.1,0
				L65.7,25.2z"/>
			
				<linearGradient id="SVGID_25_" gradientUnits="userSpaceOnUse" x1="132.8551" y1="-103.8647" x2="184.9834" y2="-320.1166" gradientTransform="matrix(0.8428 -0.3794 0.3794 0.8428 77.9676 319.5603)">
				<stop  offset="0" style="stop-color:#7C9EA2"/>
				<stop  offset="1" style="stop-color:#FFFFFF"/>
			</linearGradient>
			<path class="st23" d="M66.2,25.7c16.7,21.7,29.9,59.9,21.6,96.2c-5.5,24.1-16.4,48.3-31.2,62.4l58.6,58.6L234.1,124L110.1,0
				L66.2,25.7z"/>
			
				<linearGradient id="SVGID_26_" gradientUnits="userSpaceOnUse" x1="138.0607" y1="-117.8529" x2="189.957" y2="-333.1422" gradientTransform="matrix(0.8357 -0.3967 0.3967 0.8357 82.3068 334.0267)">
				<stop  offset="0" style="stop-color:#769A9E"/>
				<stop  offset="1" style="stop-color:#FFFFFF"/>
			</linearGradient>
			<path class="st24" d="M66.7,26.1c16.7,21.7,29.5,59.7,21.2,95.9c-5.5,24-16.5,48.1-31.3,62.1l58.6,58.6L234.1,124L110.1,0
				L66.7,26.1z"/>
			
				<linearGradient id="SVGID_27_" gradientUnits="userSpaceOnUse" x1="145.3206" y1="-130.8529" x2="196.9516" y2="-345.0415" gradientTransform="matrix(0.8285 -0.4139 0.4139 0.8285 85.0578 348.4672)">
				<stop  offset="0" style="stop-color:#70969A"/>
				<stop  offset="1" style="stop-color:#FFFFFF"/>
			</linearGradient>
			<path class="st25" d="M67.2,26.6C83.9,48.2,96.4,86.1,88,122.3c-5.6,24-16.6,47.9-31.4,61.9l58.6,58.6L234.1,124L110.1,0
				L67.2,26.6z"/>
			
				<linearGradient id="SVGID_28_" gradientUnits="userSpaceOnUse" x1="151.5303" y1="-144.3394" x2="202.8476" y2="-357.2269" gradientTransform="matrix(0.8214 -0.4312 0.4312 0.8214 89.3972 362.933)">
				<stop  offset="0" style="stop-color:#6A9196"/>
				<stop  offset="1" style="stop-color:#FFFFFF"/>
			</linearGradient>
			<path class="st26" d="M67.7,27c16.7,21.7,28.8,59.3,20.4,95.5c-5.6,24-16.7,47.7-31.5,61.7l58.6,58.6L234.1,124L110.1,0L67.7,27z
				"/>
			
				<linearGradient id="SVGID_29_" gradientUnits="userSpaceOnUse" x1="159.3771" y1="-157.8811" x2="210.3454" y2="-369.321" gradientTransform="matrix(0.8143 -0.4484 0.4484 0.8143 92.9293 378.1805)">
				<stop  offset="0" style="stop-color:#648D91"/>
				<stop  offset="1" style="stop-color:#FFFFFF"/>
			</linearGradient>
			<path class="st27" d="M68.2,27.5c16.7,21.7,28.4,59.1,19.9,95.3c-5.6,24-16.8,47.5-31.6,61.5l58.6,58.6L234.1,124L110.1,0
				L68.2,27.5z"/>
			
				<linearGradient id="SVGID_30_" gradientUnits="userSpaceOnUse" x1="166.8496" y1="-169.5922" x2="217.4315" y2="-379.4286" gradientTransform="matrix(0.8071 -0.4657 0.4657 0.8071 96.4876 391.8399)">
				<stop  offset="0" style="stop-color:#5E888D"/>
				<stop  offset="1" style="stop-color:#FFFFFF"/>
			</linearGradient>
			<path class="st28" d="M68.7,27.9c16.7,21.7,28,59,19.5,95c-5.7,24-16.9,47.2-31.6,61.2l58.6,58.6L234.1,124L110.1,0L68.7,27.9z"
				/>
			
				<linearGradient id="SVGID_31_" gradientUnits="userSpaceOnUse" x1="175.5753" y1="-182.4165" x2="225.7342" y2="-390.4985" gradientTransform="matrix(0.8 -0.4829 0.4829 0.8 100.0198 407.0874)">
				<stop  offset="0" style="stop-color:#588489"/>
				<stop  offset="1" style="stop-color:#FFFFFF"/>
			</linearGradient>
			<path class="st29" d="M69.2,28.4C85.9,50,96.9,87.1,88.3,123.2c-5.7,24-16.9,47-31.7,61l58.6,58.6L234.1,124L110.1,0L69.2,28.4z"
				/>
			
				<linearGradient id="SVGID_32_" gradientUnits="userSpaceOnUse" x1="184.9871" y1="-193.6715" x2="234.6922" y2="-399.8711" gradientTransform="matrix(0.7928 -0.5001 0.5001 0.7928 102.7708 421.5274)">
				<stop  offset="0" style="stop-color:#528085"/>
				<stop  offset="1" style="stop-color:#FFFFFF"/>
			</linearGradient>
			<path class="st30" d="M69.8,28.8C86.4,50.5,97,87.4,88.4,123.4c-5.7,24-17,46.8-31.8,60.8l58.6,58.6L234.1,124L110.1,0L69.8,28.8
				z"/>
			
				<linearGradient id="SVGID_33_" gradientUnits="userSpaceOnUse" x1="193.321" y1="-205.4165" x2="242.5315" y2="-409.5641" gradientTransform="matrix(0.7857 -0.5174 0.5174 0.7857 107.1099 435.9944)">
				<stop  offset="0" style="stop-color:#4C7B80"/>
				<stop  offset="1" style="stop-color:#FFFFFF"/>
			</linearGradient>
			<path class="st31" d="M70.3,29.3c16.7,21.7,26.9,58.4,18.3,94.4c-5.8,24-17.1,46.6-31.9,60.6l58.6,58.6L234.1,124L110.1,0
				L70.3,29.3z"/>
			
				<linearGradient id="SVGID_34_" gradientUnits="userSpaceOnUse" x1="203.4002" y1="-215.8219" x2="252.0927" y2="-417.8203" gradientTransform="matrix(0.7785 -0.5346 0.5346 0.7785 109.8612 450.4343)">
				<stop  offset="0" style="stop-color:#47777C"/>
				<stop  offset="1" style="stop-color:#FFFFFF"/>
			</linearGradient>
			<path class="st32" d="M70.8,29.7c16.7,21.7,26.5,58.2,17.8,94.1c-5.8,24-17.2,46.3-32,60.3l58.6,58.6L234.1,124L110.1,0
				L70.8,29.7z"/>
			
				<linearGradient id="SVGID_35_" gradientUnits="userSpaceOnUse" x1="212.3869" y1="-226.7273" x2="260.5244" y2="-426.4232" gradientTransform="matrix(0.7714 -0.5519 0.5519 0.7714 114.2003 464.9002)">
				<stop  offset="0" style="stop-color:#417378"/>
				<stop  offset="1" style="stop-color:#FFFFFF"/>
			</linearGradient>
			<path class="st33" d="M71.3,30.1c16.7,21.7,26.2,58,17.4,93.9c-5.8,24-17.3,46.1-32.1,60.1l58.6,58.6L234.1,124L110.1,0
				L71.3,30.1z"/>
			
				<linearGradient id="SVGID_36_" gradientUnits="userSpaceOnUse" x1="222.8284" y1="-237.3839" x2="270.3883" y2="-434.6839" gradientTransform="matrix(0.7643 -0.5691 0.5691 0.7643 117.7324 480.1476)">
				<stop  offset="0" style="stop-color:#3B6E74"/>
				<stop  offset="1" style="stop-color:#FFFFFF"/>
			</linearGradient>
			<path class="st34" d="M71.8,30.6c16.7,21.7,25.8,57.8,17,93.7c-5.9,24-17.4,45.9-32.2,59.9l58.6,58.6L234.1,124L110.1,0
				L71.8,30.6z"/>
			
				<linearGradient id="SVGID_37_" gradientUnits="userSpaceOnUse" x1="232.5375" y1="-246.2367" x2="279.4929" y2="-441.029" gradientTransform="matrix(0.7571 -0.5864 0.5864 0.7571 121.2906 493.8071)">
				<stop  offset="0" style="stop-color:#356A70"/>
				<stop  offset="1" style="stop-color:#FFFFFF"/>
			</linearGradient>
			<path class="st35" d="M72.3,31C89,52.7,97.7,88.7,88.9,124.5c-5.9,24-17.5,45.7-32.3,59.7l58.6,58.6L234.1,124L110.1,0L72.3,31z"
				/>
			
				<linearGradient id="SVGID_38_" gradientUnits="userSpaceOnUse" x1="243.4494" y1="-255.9384" x2="289.7792" y2="-448.1356" gradientTransform="matrix(0.75 -0.6036 0.6036 0.75 124.8228 509.0551)">
				<stop  offset="0" style="stop-color:#2F656B"/>
				<stop  offset="1" style="stop-color:#FFFFFF"/>
			</linearGradient>
			<path class="st36" d="M72.8,31.5c16.7,21.7,25,57.4,16.2,93.2c-5.9,24-17.6,45.4-32.4,59.4l58.6,58.6L234.1,124L110.1,0
				L72.8,31.5z"/>
			
				<linearGradient id="SVGID_39_" gradientUnits="userSpaceOnUse" x1="253.5313" y1="-263.8698" x2="299.2123" y2="-453.3755" gradientTransform="matrix(0.7428 -0.6209 0.6209 0.7428 128.3811 522.7134)">
				<stop  offset="0" style="stop-color:#296167"/>
				<stop  offset="1" style="stop-color:#FFFFFF"/>
			</linearGradient>
			<path class="st37" d="M73.3,31.9C90,53.6,98,89.2,89.1,125c-6,23.9-17.7,45.2-32.5,59.2l58.6,58.6L234.1,124L110.1,0L73.3,31.9z"
				/>
			
				<linearGradient id="SVGID_40_" gradientUnits="userSpaceOnUse" x1="264.7919" y1="-272.5927" x2="309.8078" y2="-459.3392" gradientTransform="matrix(0.7357 -0.6381 0.6381 0.7357 131.9132 537.9609)">
				<stop  offset="0" style="stop-color:#235D63"/>
				<stop  offset="1" style="stop-color:#FFFFFF"/>
			</linearGradient>
			<path class="st38" d="M73.9,32.4C90.5,54,98.1,89.4,89.2,125.2c-6,23.9-17.8,45-32.6,59l58.6,58.6L234.1,124L110.1,0L73.9,32.4z"
				/>
			
				<linearGradient id="SVGID_41_" gradientUnits="userSpaceOnUse" x1="275.133" y1="-279.592" x2="319.4643" y2="-463.4985" gradientTransform="matrix(0.7285 -0.6554 0.6554 0.7285 135.4712 551.6204)">
				<stop  offset="0" style="stop-color:#1D585F"/>
				<stop  offset="1" style="stop-color:#FFFFFF"/>
			</linearGradient>
			<path class="st39" d="M74.4,32.8C91,54.5,98.3,89.7,89.3,125.4c-6,23.9-17.9,44.8-32.7,58.8l58.6,58.6L234.1,124L110.1,0
				L74.4,32.8z"/>
			
				<linearGradient id="SVGID_42_" gradientUnits="userSpaceOnUse" x1="286.6257" y1="-287.3316" x2="330.2607" y2="-468.3495" gradientTransform="matrix(0.7214 -0.6726 0.6726 0.7214 139.0034 566.8674)">
				<stop  offset="0" style="stop-color:#17545A"/>
				<stop  offset="1" style="stop-color:#FFFFFF"/>
			</linearGradient>
			<path class="st40" d="M74.9,33.3C91.6,54.9,98.4,90,89.4,125.6c-6.1,23.9-18,44.5-32.7,58.5l58.6,58.6L234.1,124L110.1,0
				L74.9,33.3z"/>
			
				<linearGradient id="SVGID_43_" gradientUnits="userSpaceOnUse" x1="297.1165" y1="-293.4038" x2="340.0394" y2="-471.4677" gradientTransform="matrix(0.7142 -0.6899 0.6899 0.7142 142.5616 580.5277)">
				<stop  offset="0" style="stop-color:#114F56"/>
				<stop  offset="1" style="stop-color:#FFFFFF"/>
			</linearGradient>
			<path class="st41" d="M75.4,33.7c16.7,21.7,23.2,56.5,14.1,92.1c-6.1,23.9-18,44.3-32.8,58.3l58.6,58.6L234.1,124L110.1,0
				L75.4,33.7z"/>
			
				<linearGradient id="SVGID_44_" gradientUnits="userSpaceOnUse" x1="308.7318" y1="-300.1722" x2="350.9354" y2="-475.2519" gradientTransform="matrix(0.7071 -0.7071 0.7071 0.7071 146.0938 595.7742)">
				<stop  offset="0" style="stop-color:#0B4B52"/>
				<stop  offset="1" style="stop-color:#FFFFFF"/>
			</linearGradient>
			<path class="st42" d="M75.9,34.2c16.7,21.7,22.8,56.3,13.6,91.9c-6.1,23.9-18.1,44.1-32.9,58.1l58.6,58.6L234.1,124L110.1,0
				L75.9,34.2z"/>
		</g>
	</g>
	
		<linearGradient id="SVGID_45_" gradientUnits="userSpaceOnUse" x1="249.9388" y1="-251.0081" x2="387.9457" y2="-389.015" gradientTransform="matrix(0.7071 -0.7071 0.7071 0.7071 146.0938 595.7742)">
		<stop  offset="0" style="stop-color:#006E78"/>
		<stop  offset="0.2076" style="stop-color:#00848F"/>
		<stop  offset="0.5215" style="stop-color:#009FAB"/>
		<stop  offset="0.7963" style="stop-color:#00AFBC"/>
		<stop  offset="1" style="stop-color:#00B5C2"/>
	</linearGradient>
	<path class="st43" d="M75.9,34.2c16.7,21.7,22.8,56.3,13.6,91.9c-6.1,23.9-18.1,44.1-32.9,58.1l58.6,58.6L234.1,124L110.1,0
		L75.9,34.2z"/>
</g>
</svg>
